Varta-SemiBold.ufo
<glyph name="hyphen" format="1">
  <advance width="645"/>
  <unicode hex="002D"/>
  <outline>
    <contour>
      <point x="85" y="442" type="line" name="hr00"/>
      <point x="562" y="442" type="line"/>
      <point x="562" y="587" type="line"/>
      <point x="85" y="587" type="line"/>
    </contour>
  </outline>
</glyph>
<glyph name="a" format="1">
  <advance width="1057"/>
  <unicode hex="0061"/>
  <outline>
    <contour>
      <point x="115" y="265" type="curve" smooth="yes" name="hr01"/>
      <point x="115" y="88"/>
      <point x="238" y="-25"/>
      <point x="419" y="-25" type="curve" smooth="yes"/>
      <point x="557" y="-25"/>
      <point x="638" y="39"/>
      <point x="732" y="116" type="curve"/>
      <point x="737" y="116" type="line"/>
      <point x="753" y="0" type="line" name="hr02"/>
      <point x="912" y="0" type="line"/>
      <point x="912" y="605" type="line"/>
      <point x="912" y="876"/>
      <point x="802" y="1024"/>
      <point x="553" y="1024" type="curve" smooth="yes"/>
      <point x="393" y="1024"/>
      <point x="247" y="972"/>
      <point x="148" y="909" type="curve"/>
      <point x="222" y="778" type="line"/>
      <point x="304" y="832"/>
      <point x="409" y="866"/>
      <point x="520" y="866" type="curve" smooth="yes"/>
      <point x="674" y="866"/>
      <point x="719" y="780"/>
      <point x="719" y="633" type="curve"/>
      <point x="295" y="614"/>
      <point x="115" y="481"/>
    </contour>
    <contour>
      <point x="303" y="277" type="curve" smooth="yes"/>
      <point x="303" y="395"/>
      <point x="400" y="500"/>
      <point x="719" y="511" type="curve"/>
      <point x="719" y="253" type="line"/>
      <point x="633" y="173"/>
      <point x="566" y="129"/>
      <point x="475" y="129" type="curve" smooth="yes"/>
      <point x="372" y="129"/>
      <point x="303" y="174"/>
    </contour>
    <contour>
      <point x="547" y="1050" type="move" name="top"/>
    </contour>
  </outline>
</glyph>
<glyph name="g" format="1">
  <advance width="1043"/>
  <unicode hex="0067"/>
  <outline>
    <contour>
      <point x="256" y="-160" type="curve" smooth="yes" name="hr01"/>
      <point x="256" y="-97"/>
      <point x="282" y="-32"/>
      <point x="348" y="15" type="curve"/>
      <point x="389" y="4"/>
      <point x="435" y="0"/>
      <point x="479" y="0" type="curve" smooth="yes"/>
      <point x="639" y="0" type="line"/>
      <point x="763" y="0"/>
      <point x="832" y="-48"/>
      <point x="832" y="-135" type="curve" smooth="yes"/>
      <point x="832" y="-234"/>
      <point x="719" y="-322"/>
      <point x="531" y="-322" type="curve" smooth="yes"/>
      <point x="351" y="-322"/>
      <point x="256" y="-261"/>
    </contour>
    <contour>
      <point x="88" y="-187" type="curve" smooth="yes"/>
      <point x="88" y="-361"/>
      <point x="233" y="-454"/>
      <point x="501" y="-454" type="curve" smooth="yes"/>
      <point x="830" y="-454"/>
      <point x="1018" y="-295"/>
      <point x="1018" y="-106" type="curve" smooth="yes"/>
      <point x="1018" y="63"/>
      <point x="915" y="148"/>
      <point x="680" y="148" type="curve" smooth="yes"/>
      <point x="475" y="148" type="line"/>
      <point x="344" y="148"/>
      <point x="303" y="189"/>
      <point x="303" y="250" type="curve" smooth="yes" name="hr02"/>
      <point x="303" y="302"/>
      <point x="328" y="321"/>
      <point x="362" y="351" type="curve"/>
      <point x="407" y="330"/>
      <point x="456" y="318"/>
      <point x="507" y="318" type="curve" smooth="yes"/>
      <point x="721" y="318"/>
      <point x="879" y="436"/>
      <point x="879" y="664" type="curve" smooth="yes"/>
      <point x="879" y="746"/>
      <point x="846" y="815"/>
      <point x="804" y="856" type="curve"/>
      <point x="1001" y="856" type="line"/>
      <point x="1001" y="999" type="line"/>
      <point x="651" y="999" type="line"/>
      <point x="612" y="1014"/>
      <point x="570" y="1024"/>
      <point x="507" y="1024" type="curve" smooth="yes" name="hr03"/>
      <point x="292" y="1024"/>
      <point x="123" y="902"/>
      <point x="123" y="669" type="curve" smooth="yes"/>
      <point x="123" y="543"/>
      <point x="188" y="454"/>
      <point x="254" y="401" type="curve"/>
      <point x="254" y="393" type="line"/>
      <point x="200" y="356"/>
      <point x="145" y="301"/>
      <point x="145" y="219" type="curve" smooth="yes" name="hr04"/>
      <point x="145" y="140"/>
      <point x="183" y="90"/>
      <point x="234" y="59" type="curve"/>
      <point x="234" y="51" type="line"/>
      <point x="142" y="-7"/>
      <point x="88" y="-99"/>
    </contour>
    <contour>
      <point x="507" y="444" type="curve" smooth="yes" name="hr06"/>
      <point x="398" y="444"/>
      <point x="308" y="521"/>
      <point x="308" y="669" type="curve" smooth="yes"/>
      <point x="308" y="815"/>
      <point x="388" y="886"/>
      <point x="507" y="886" type="curve" smooth="yes"/>
      <point x="625" y="886"/>
      <point x="704" y="815"/>
      <point x="704" y="669" type="curve" smooth="yes"/>
      <point x="704" y="518"/>
      <point x="614" y="444"/>
    </contour>
    <contour>
      <point x="508" y="1050" type="move" name="top"/>
    </contour>
  </outline>
</glyph>
<glyph name="cent" format="1">
  <advance width="1030"/>
  <unicode hex="00A2"/>
  <outline>
    <contour>
      <point x="542" y="306" type="line" name="hr01"/>
      <point x="398" y="342"/>
      <point x="316" y="463"/>
      <point x="316" y="634" type="curve" smooth="yes"/>
      <point x="316" y="803"/>
      <point x="401" y="924"/>
      <point x="542" y="960" type="curve"/>
    </contour>
    <contour>
      <point x="860" y="387" type="line"/>
      <point x="807" y="341"/>
      <point x="739" y="302"/>
      <point x="659" y="295" type="curve"/>
      <point x="659" y="972" type="line" name="hr02"/>
      <point x="725" y="968"/>
      <point x="780" y="938"/>
      <point x="832" y="892" type="curve"/>
      <point x="924" y="1013" type="line" name="hr03"/>
      <point x="862" y="1073"/>
      <point x="776" y="1124"/>
      <point x="659" y="1131" type="curve" name="hr04"/>
      <point x="659" y="1338" type="line"/>
      <point x="542" y="1338" type="line"/>
      <point x="542" y="1124" type="line"/>
      <point x="306" y="1089"/>
      <point x="125" y="918"/>
      <point x="125" y="634" type="curve" smooth="yes"/>
      <point x="125" y="343"/>
      <point x="294" y="169"/>
      <point x="542" y="139" type="curve"/>
      <point x="542" y="-71" type="line"/>
      <point x="659" y="-71" type="line"/>
      <point x="659" y="137" type="line"/>
      <point x="763" y="147"/>
      <point x="863" y="194"/>
      <point x="942" y="264" type="curve"/>
    </contour>
  </outline>
</glyph>
<glyph name="yen" format="1">
  <advance width="1030"/>
  <unicode hex="00A5"/>
  <outline>
    <contour>
      <point x="43" y="1306" type="line" name="hr00"/>
      <point x="371" y="660" type="line"/>
      <point x="89" y="660" type="line"/>
      <point x="89" y="555" type="line"/>
      <point x="418" y="555" type="line"/>
      <point x="418" y="426" type="line"/>
      <point x="89" y="426" type="line"/>
      <point x="89" y="320" type="line"/>
      <point x="418" y="320" type="line"/>
      <point x="418" y="0" type="line"/>
      <point x="610" y="0" type="line"/>
      <point x="610" y="320" type="line"/>
      <point x="941" y="320" type="line"/>
      <point x="941" y="426" type="line"/>
      <point x="610" y="426" type="line"/>
      <point x="610" y="555" type="line"/>
      <point x="941" y="555" type="line"/>
      <point x="941" y="660" type="line"/>
      <point x="657" y="660" type="line"/>
      <point x="987" y="1306" type="line"/>
      <point x="791" y="1306" type="line"/>
      <point x="641" y="969" type="line"/>
      <point x="601" y="880"/>
      <point x="564" y="790"/>
      <point x="520" y="695" type="curve"/>
      <point x="512" y="695" type="line"/>
      <point x="471" y="789"/>
      <point x="433" y="879"/>
      <point x="393" y="969" type="curve" smooth="yes"/>
      <point x="243" y="1306" type="line"/>
    </contour>
  </outline>
</glyph>
<glyph name="copyright" format="1">
  <advance width="1526"/>
  <unicode hex="00A9"/>
  <outline>
    <contour>
      <point x="80" y="664" type="curve" smooth="yes" name="hr00"/>
      <point x="80" y="229"/>
      <point x="398" y="-47"/>
      <point x="766" y="-47" type="curve" smooth="yes"/>
      <point x="1137" y="-47"/>
      <point x="1453" y="229"/>
      <point x="1453" y="664" type="curve" smooth="yes"/>
      <point x="1453" y="1096"/>
      <point x="1137" y="1365"/>
      <point x="766" y="1365" type="curve" smooth="yes"/>
      <point x="398" y="1365"/>
      <point x="80" y="1097"/>
    </contour>
    <contour>
      <point x="187" y="664" type="curve" smooth="yes"/>
      <point x="187" y="1030"/>
      <point x="448" y="1271"/>
      <point x="766" y="1271" type="curve" smooth="yes"/>
      <point x="1086" y="1271"/>
      <point x="1347" y="1030"/>
      <point x="1347" y="664" type="curve" smooth="yes"/>
      <point x="1347" y="295"/>
      <point x="1086" y="50"/>
      <point x="766" y="50" type="curve" smooth="yes"/>
      <point x="448" y="50"/>
      <point x="187" y="295"/>
    </contour>
    <contour>
      <point x="400" y="662" type="curve" smooth="yes"/>
      <point x="400" y="409"/>
      <point x="565" y="257"/>
      <point x="776" y="257" type="curve" smooth="yes"/>
      <point x="896" y="257"/>
      <point x="976" y="307"/>
      <point x="1052" y="372" type="curve"/>
      <point x="983" y="468" type="line"/>
      <point x="926" y="418"/>
      <point x="865" y="381"/>
      <point x="783" y="381" type="curve" smooth="yes"/>
      <point x="642" y="381"/>
      <point x="550" y="489"/>
      <point x="550" y="662" type="curve" smooth="yes"/>
      <point x="550" y="814"/>
      <point x="644" y="926"/>
      <point x="790" y="926" type="curve" smooth="yes"/>
      <point x="858" y="926"/>
      <point x="908" y="896"/>
      <point x="961" y="844" type="curve"/>
      <point x="1040" y="933" type="line"/>
      <point x="975" y="998"/>
      <point x="898" y="1050"/>
      <point x="781" y="1050" type="curve" smooth="yes"/>
      <point x="582" y="1050"/>
      <point x="400" y="900"/>
    </contour>
  </outline>
</glyph>
<glyph name="degree" format="1">
  <advance width="691"/>
  <unicode hex="00B0"/>
  <outline>
    <contour>
      <point x="346" y="867" type="curve" smooth="yes" name="hr00"/>
      <point x="489" y="867"/>
      <point x="610" y="973"/>
      <point x="610" y="1134" type="curve" smooth="yes"/>
      <point x="610" y="1297"/>
      <point x="489" y="1403"/>
      <point x="346" y="1403" type="curve" smooth="yes"/>
      <point x="204" y="1403"/>
      <point x="83" y="1297"/>
      <point x="83" y="1134" type="curve" smooth="yes"/>
      <point x="83" y="973"/>
      <point x="204" y="867"/>
    </contour>
    <contour>
      <point x="346" y="970" type="curve" smooth="yes"/>
      <point x="258" y="970"/>
      <point x="196" y="1038"/>
      <point x="196" y="1134" type="curve" smooth="yes"/>
      <point x="196" y="1231"/>
      <point x="258" y="1300"/>
      <point x="346" y="1300" type="curve" smooth="yes"/>
      <point x="435" y="1300"/>
      <point x="497" y="1231"/>
      <point x="497" y="1134" type="curve" smooth="yes"/>
      <point x="497" y="1038"/>
      <point x="435" y="970"/>
    </contour>
  </outline>
</glyph>
<glyph name="three.sups" format="1">
  <advance width="755"/>
  <unicode hex="00B3"/>
  <outline>
    <contour>
      <point x="69" y="1033" type="line" name="hr01"/>
      <point x="132" y="941"/>
      <point x="240" y="877"/>
      <point x="371" y="877" type="curve" smooth="yes"/>
      <point x="528" y="877"/>
      <point x="660" y="970"/>
      <point x="660" y="1117" type="curve" smooth="yes"/>
      <point x="660" y="1222"/>
      <point x="581" y="1289"/>
      <point x="493" y="1314" type="curve" name="hr02"/>
      <point x="573" y="1353"/>
      <point x="629" y="1415"/>
      <point x="629" y="1508" type="curve" smooth="yes" name="hr03"/>
      <point x="629" y="1644"/>
      <point x="509" y="1724"/>
      <point x="370" y="1724" type="curve" smooth="yes"/>
      <point x="256" y="1724"/>
      <point x="174" y="1674"/>
      <point x="101" y="1592" type="curve"/>
      <point x="189" y="1515" type="line"/>
      <point x="233" y="1569"/>
      <point x="288" y="1608"/>
      <point x="346" y="1608" type="curve" smooth="yes"/>
      <point x="429" y="1608"/>
      <point x="483" y="1561"/>
      <point x="483" y="1489" type="curve" smooth="yes"/>
      <point x="483" y="1410"/>
      <point x="406" y="1354"/>
      <point x="276" y="1354" type="curve"/>
      <point x="276" y="1262" type="line"/>
      <point x="427" y="1262"/>
      <point x="513" y="1216"/>
      <point x="513" y="1127" type="curve" smooth="yes" name="hr04"/>
      <point x="513" y="1041"/>
      <point x="444" y="993"/>
      <point x="361" y="993" type="curve" smooth="yes"/>
      <point x="281" y="993"/>
      <point x="214" y="1035"/>
      <point x="165" y="1108" type="curve"/>
    </contour>
  </outline>
</glyph>
<glyph name="uni00B5" format="1">
  <advance width="1135"/>
  <unicode hex="00B5"/>
  <outline>
    <contour>
      <point x="162" y="-410" type="line" name="hr01"/>
      <point x="354" y="-410" type="line"/>
      <point x="354" y="-119" type="line"/>
      <point x="342" y="66" type="line"/>
      <point x="387" y="0"/>
      <point x="445" y="-15"/>
      <point x="519" y="-15" type="curve" smooth="yes"/>
      <point x="630" y="-15"/>
      <point x="722" y="48"/>
      <point x="795" y="153" type="curve"/>
      <point x="799" y="153" type="line"/>
      <point x="815" y="0" type="line" name="hr02"/>
      <point x="973" y="0" type="line"/>
      <point x="973" y="999" type="line"/>
      <point x="782" y="999" type="line"/>
      <point x="782" y="299" type="line"/>
      <point x="693" y="189"/>
      <point x="628" y="141"/>
      <point x="530" y="141" type="curve" smooth="yes" name="hr03"/>
      <point x="408" y="141"/>
      <point x="354" y="215"/>
      <point x="354" y="394" type="curve" smooth="yes"/>
      <point x="354" y="999" type="line"/>
      <point x="162" y="999" type="line"/>
    </contour>
  </outline>
</glyph>
<glyph name="AE" format="1">
  <advance width="1683"/>
  <unicode hex="00C6"/>
  <outline>
    <contour>
      <point x="476" y="530" type="line" name="hr01"/>
      <point x="593" y="762" type="line"/>
      <point x="661" y="902"/>
      <point x="735" y="1047"/>
      <point x="804" y="1190" type="curve" name="hr02"/>
      <point x="812" y="1190" type="line"/>
      <point x="812" y="530" type="line"/>
    </contour>
    <contour>
      <point x="1006" y="165" type="line"/>
      <point x="1006" y="620" type="line"/>
      <point x="1475" y="620" type="line"/>
      <point x="1475" y="784" type="line"/>
      <point x="1006" y="784" type="line"/>
      <point x="1006" y="1178" type="line" name="hr03"/>
      <point x="1567" y="1178" type="line"/>
      <point x="1567" y="1342" type="line"/>
      <point x="696" y="1342" type="line"/>
      <point x="4" y="0" type="line"/>
      <point x="206" y="0" type="line"/>
      <point x="397" y="375" type="line"/>
      <point x="812" y="375" type="line"/>
      <point x="812" y="0" type="line"/>
      <point x="1587" y="0" type="line"/>
      <point x="1587" y="165" type="line"/>
    </contour>
    <contour>
      <point x="904" y="1050" type="move" name="top"/>
    </contour>
  </outline>
</glyph>
<glyph name="Eth" format="1">
  <advance width="1302"/>
  <unicode hex="00D0"/>
  <outline>
    <contour>
      <point x="411" y="158" type="line" name="hr00"/>
      <point x="411" y="649" type="line"/>
      <point x="712" y="649" type="line"/>
      <point x="712" y="755" type="line"/>
      <point x="411" y="755" type="line"/>
      <point x="411" y="1183" type="line"/>
      <point x="547" y="1183" type="line"/>
      <point x="844" y="1183"/>
      <point x="1001" y="1012"/>
      <point x="1001" y="677" type="curve" smooth="yes"/>
      <point x="1001" y="341"/>
      <point x="844" y="158"/>
      <point x="547" y="158" type="curve" smooth="yes"/>
    </contour>
    <contour>
      <point x="216" y="1342" type="line"/>
      <point x="216" y="755" type="line"/>
      <point x="60" y="746" type="line"/>
      <point x="60" y="649" type="line"/>
      <point x="216" y="649" type="line"/>
      <point x="216" y="0" type="line"/>
      <point x="570" y="0" type="line"/>
      <point x="973" y="0"/>
      <point x="1202" y="244"/>
      <point x="1202" y="677" type="curve" smooth="yes"/>
      <point x="1202" y="1109"/>
      <point x="973" y="1342"/>
      <point x="560" y="1342" type="curve" smooth="yes"/>
    </contour>
    <contour>
      <point x="631" y="1050" type="move" name="top"/>
    </contour>
  </outline>
</glyph>
<glyph name="Hbar" format="1">
  <advance width="1408"/>
  <unicode hex="0126"/>
  <outline>
    <contour>
      <point x="1000" y="788" type="line" name="hr00"/>
      <point x="406" y="788" type="line"/>
      <point x="406" y="1006" type="line"/>
      <point x="1000" y="1006" type="line"/>
    </contour>
    <contour>
      <point x="1348" y="1111" type="line"/>
      <point x="1196" y="1111" type="line"/>
      <point x="1196" y="1342" type="line"/>
      <point x="1000" y="1342" type="line"/>
      <point x="1000" y="1111" type="line"/>
      <point x="406" y="1111" type="line"/>
      <point x="406" y="1342" type="line"/>
      <point x="212" y="1342" type="line"/>
      <point x="212" y="1111" type="line"/>
      <point x="59" y="1100" type="line"/>
      <point x="59" y="1006" type="line"/>
      <point x="212" y="1006" type="line"/>
      <point x="212" y="0" type="line"/>
      <point x="406" y="0" type="line"/>
      <point x="406" y="619" type="line"/>
      <point x="1000" y="619" type="line"/>
      <point x="1000" y="0" type="line"/>
      <point x="1196" y="0" type="line"/>
      <point x="1196" y="1006" type="line"/>
      <point x="1348" y="1006" type="line"/>
    </contour>
  </outline>
</glyph>
<glyph name="dotlessi" format="1">
  <advance width="515"/>
  <unicode hex="0131"/>
  <outline>
    <contour>
      <point x="162" y="0" type="line" name="hr00"/>
      <point x="354" y="0" type="line"/>
      <point x="354" y="999" type="line"/>
      <point x="162" y="999" type="line"/>
    </contour>
    <contour>
      <point x="258" y="1050" type="move" name="top"/>
    </contour>
  </outline>
</glyph>
<glyph name="Lslash" format="1">
  <advance width="1006"/>
  <unicode hex="0141"/>
  <outline>
    <contour>
      <point x="377" y="165" type="line" name="hr00"/>
      <point x="377" y="567" type="line"/>
      <point x="757" y="771" type="line"/>
      <point x="757" y="927" type="line"/>
      <point x="377" y="723" type="line"/>
      <point x="377" y="1342" type="line"/>
      <point x="181" y="1342" type="line"/>
      <point x="181" y="627" type="line"/>
      <point x="20" y="542" type="line"/>
      <point x="20" y="387" type="line"/>
      <point x="181" y="472" type="line"/>
      <point x="181" y="0" type="line"/>
      <point x="952" y="0" type="line"/>
      <point x="952" y="165" type="line"/>
    </contour>
  </outline>
</glyph>
<glyph name="uni0162" format="1">
  <advance width="1096"/>
  <unicode hex="0162"/>
  <outline>
    <contour>
      <point x="645" y="0" type="line" name="hr01"/>
      <point x="645" y="1178" type="line"/>
      <point x="1045" y="1178" type="line"/>
      <point x="1045" y="1342" type="line"/>
      <point x="51" y="1342" type="line"/>
      <point x="51" y="1178" type="line"/>
      <point x="451" y="1178" type="line"/>
      <point x="451" y="0" type="line"/>
      <point x="493" y="0" type="line"/>
      <point x="415" y="-154" type="line"/>
      <point x="499" y="-175"/>
      <point x="542" y="-202"/>
      <point x="542" y="-252" type="curve" smooth="yes" name="hr02"/>
      <point x="542" y="-306"/>
      <point x="469" y="-335"/>
      <point x="362" y="-348" type="curve"/>
      <point x="380" y="-439" type="line"/>
      <point x="543" y="-426"/>
      <point x="689" y="-370"/>
      <point x="689" y="-247" type="curve" smooth="yes"/>
      <point x="689" y="-163"/>
      <point x="635" y="-122"/>
      <point x="568" y="-99" type="curve"/>
      <point x="615" y="0" type="line" name="hr03"/>
    </contour>
  </outline>
</glyph>
<glyph name="Uogonek" format="1">
  <advance width="1320"/>
  <unicode hex="0172"/>
  <outline>
    <contour>
      <point x="168" y="567" type="line" name="hr00"/>
      <point x="168" y="152"/>
      <point x="356" y="-13"/>
      <point x="643" y="-22" type="curve"/>
      <point x="595" y="-70"/>
      <point x="512" y="-142"/>
      <point x="512" y="-257" type="curve" smooth="yes"/>
      <point x="512" y="-376"/>
      <point x="603" y="-438"/>
      <point x="714" y="-438" type="curve" smooth="yes"/>
      <point x="772" y="-438"/>
      <point x="846" y="-411"/>
      <point x="887" y="-378" type="curve"/>
      <point x="836" y="-275" type="line"/>
      <point x="812" y="-293"/>
      <point x="787" y="-304"/>
      <point x="755" y="-304" type="curve" smooth="yes"/>
      <point x="707" y="-304"/>
      <point x="659" y="-275"/>
      <point x="659" y="-213" type="curve" smooth="yes"/>
      <point x="659" y="-148"/>
      <point x="715" y="-64"/>
      <point x="820" y="-13" type="curve" smooth="yes"/>
      <point x="1024" y="82"/>
      <point x="1152" y="202"/>
      <point x="1152" y="567" type="curve" smooth="yes"/>
      <point x="1152" y="1342" type="line"/>
      <point x="965" y="1342" type="line"/>
      <point x="965" y="558" type="line"/>
      <point x="965" y="245"/>
      <point x="833" y="145"/>
      <point x="660" y="145" type="curve" smooth="yes"/>
      <point x="490" y="145"/>
      <point x="364" y="245"/>
      <point x="364" y="558" type="curve" smooth="yes"/>
      <point x="364" y="1342" type="line"/>
      <point x="168" y="1342" type="line"/>
    </contour>
  </outline>
</glyph>
<glyph name="uogonek" format="1">
  <advance width="1123"/>
  <unicode hex="0173"/>
  <outline>
    <contour>
      <point x="148" y="369" type="line" name="hr01"/>
      <point x="148" y="115"/>
      <point x="242" y="-25"/>
      <point x="455" y="-25" type="curve" smooth="yes"/>
      <point x="593" y="-25"/>
      <point x="690" y="46"/>
      <point x="781" y="153" type="curve"/>
      <point x="788" y="153" type="line"/>
      <point x="806" y="6" type="line"/>
      <point x="724" y="-52"/>
      <point x="644" y="-134"/>
      <point x="644" y="-247" type="curve" smooth="yes" name="hr02"/>
      <point x="644" y="-363"/>
      <point x="729" y="-423"/>
      <point x="836" y="-423" type="curve" smooth="yes"/>
      <point x="890" y="-423"/>
      <point x="963" y="-398"/>
      <point x="1004" y="-366" type="curve"/>
      <point x="958" y="-273" type="line"/>
      <point x="935" y="-288"/>
      <point x="908" y="-299"/>
      <point x="876" y="-299" type="curve" smooth="yes"/>
      <point x="830" y="-299"/>
      <point x="783" y="-269"/>
      <point x="783" y="-207" type="curve" smooth="yes"/>
      <point x="783" y="-131"/>
      <point x="838" y="-56"/>
      <point x="962" y="0" type="curve" name="hr03"/>
      <point x="962" y="999" type="line"/>
      <point x="769" y="999" type="line"/>
      <point x="769" y="299" type="line"/>
      <point x="682" y="189"/>
      <point x="615" y="141"/>
      <point x="518" y="141" type="curve" smooth="yes" name="hr04"/>
      <point x="393" y="141"/>
      <point x="342" y="215"/>
      <point x="342" y="394" type="curve" smooth="yes"/>
      <point x="342" y="999" type="line"/>
      <point x="148" y="999" type="line"/>
    </contour>
  </outline>
</glyph>
<glyph name="Uhorn" format="1">
  <advance width="1349"/>
  <unicode hex="01AF"/>
  <outline>
    <contour>
      <point x="1195" y="1563" type="line" name="hr00"/>
      <point x="1212" y="1537"/>
      <point x="1226" y="1509"/>
      <point x="1226" y="1478" type="curve" smooth="yes"/>
      <point x="1226" y="1381"/>
      <point x="1153" y="1355"/>
      <point x="1050" y="1342" type="curve"/>
      <point x="965" y="1342" type="line"/>
      <point x="965" y="558" type="line"/>
      <point x="965" y="245"/>
      <point x="833" y="145"/>
      <point x="660" y="145" type="curve" smooth="yes"/>
      <point x="490" y="145"/>
      <point x="364" y="245"/>
      <point x="364" y="558" type="curve" smooth="yes"/>
      <point x="364" y="1342" type="line"/>
      <point x="168" y="1342" type="line"/>
      <point x="168" y="567" type="line"/>
      <point x="168" y="132"/>
      <point x="373" y="-25"/>
      <point x="660" y="-25" type="curve" smooth="yes"/>
      <point x="948" y="-25"/>
      <point x="1152" y="132"/>
      <point x="1152" y="567" type="curve" smooth="yes"/>
      <point x="1152" y="1262" type="line"/>
      <point x="1277" y="1288"/>
      <point x="1382" y="1351"/>
      <point x="1382" y="1490" type="curve" smooth="yes"/>
      <point x="1382" y="1543"/>
      <point x="1360" y="1591"/>
      <point x="1333" y="1628" type="curve"/>
    </contour>
  </outline>
</glyph>
<glyph name="uni0259" format="1">
  <advance width="1024"/>
  <unicode hex="0259"/>
  <outline>
    <contour>
      <point x="76" y="457" type="curve" smooth="yes" name="hr00"/>
      <point x="76" y="163"/>
      <point x="233" y="-25"/>
      <point x="491" y="-25" type="curve" smooth="yes"/>
      <point x="735" y="-25"/>
      <point x="934" y="175"/>
      <point x="934" y="501" type="curve" smooth="yes"/>
      <point x="934" y="829"/>
      <point x="742" y="1024"/>
      <point x="488" y="1024" type="curve" smooth="yes"/>
      <point x="352" y="1024"/>
      <point x="234" y="979"/>
      <point x="139" y="914" type="curve"/>
      <point x="207" y="790" type="line"/>
      <point x="282" y="840"/>
      <point x="361" y="873"/>
      <point x="458" y="873" type="curve" smooth="yes"/>
      <point x="628" y="873"/>
      <point x="730" y="750"/>
      <point x="743" y="557" type="curve"/>
      <point x="84" y="557" type="line"/>
      <point x="80" y="532"/>
      <point x="76" y="497"/>
    </contour>
    <contour>
      <point x="245" y="431" type="curve"/>
      <point x="745" y="431" type="line"/>
      <point x="726" y="234"/>
      <point x="631" y="128"/>
      <point x="487" y="128" type="curve" smooth="yes"/>
      <point x="336" y="128"/>
      <point x="245" y="229"/>
    </contour>
  </outline>
</glyph>
<glyph name="hungarumlaut" format="1">
  <advance width="1115"/>
  <unicode hex="02DD"/>
  <outline>
    <contour>
      <point x="346" y="1170" type="line" name="hr00"/>
      <point x="472" y="1170" type="line"/>
      <point x="655" y="1466" type="line"/>
      <point x="491" y="1466" type="line"/>
    </contour>
    <contour>
      <point x="656" y="1170" type="line"/>
      <point x="782" y="1170" type="line"/>
      <point x="965" y="1466" type="line"/>
      <point x="801" y="1466" type="line"/>
    </contour>
    <contour>
      <point x="538" y="1050" type="move" name="_top"/>
    </contour>
  </outline>
</glyph>
<glyph name="l.sups" format="1">
  <advance width="364"/>
  <unicode hex="02E1"/>
  <outline>
    <contour>
      <point x="102" y="695" type="line" name="hr00"/>
      <point x="102" y="585"/>
      <point x="140" y="516"/>
      <point x="248" y="516" type="curve" smooth="yes"/>
      <point x="284" y="516"/>
      <point x="307" y="522"/>
      <point x="326" y="529" type="curve"/>
      <point x="307" y="637" type="line"/>
      <point x="295" y="633"/>
      <point x="286" y="633"/>
      <point x="278" y="633" type="curve" smooth="yes"/>
      <point x="258" y="633"/>
      <point x="245" y="647"/>
      <point x="245" y="685" type="curve" smooth="yes"/>
      <point x="245" y="1490" type="line"/>
      <point x="102" y="1490" type="line"/>
    </contour>
  </outline>
</glyph>
<glyph name="uni0302" format="1">
  <advance width="600"/>
  <unicode hex="0302"/>
  <outline>
    <contour>
      <point x="-273" y="1174" type="line"/>
      <point x="-136" y="1174" type="line"/>
      <point x="-4" y="1356" type="line"/>
      <point x="4" y="1356" type="line"/>
      <point x="136" y="1174" type="line"/>
      <point x="273" y="1174" type="line"/>
      <point x="79" y="1466" type="line"/>
      <point x="-79" y="1466" type="line"/>
    </contour>
    <contour>
      <point x="0" y="1044" type="move" name="_mark0"/>
    </contour>
  </outline>
</glyph>
<glyph name="uni0303" format="1">
  <advance width="0"/>
  <unicode hex="0303"/>
  <outline>
    <contour>
      <point x="-295" y="1185" type="curve" name="hr01"/>
      <point x="-189" y="1185" type="line"/>
      <point x="-177" y="1253"/>
      <point x="-155" y="1286"/>
      <point x="-115" y="1286" type="curve" smooth="yes" name="hr02"/>
      <point x="-46" y="1286"/>
      <point x="15" y="1185"/>
      <point x="120" y="1185" type="curve" smooth="yes"/>
      <point x="222" y="1185"/>
      <point x="282" y="1278"/>
      <point x="295" y="1412" type="curve" name="hr03"/>
      <point x="189" y="1412" type="line"/>
      <point x="177" y="1343"/>
      <point x="155" y="1310"/>
      <point x="115" y="1310" type="curve" smooth="yes" name="hr04"/>
      <point x="50" y="1310"/>
      <point x="-15" y="1412"/>
      <point x="-120" y="1412" type="curve" smooth="yes"/>
      <point x="-222" y="1412"/>
      <point x="-282" y="1319"/>
    </contour>
  </outline>
</glyph>
<glyph name="a-deva" format="1">
  <advance width="1393"/>
  <unicode hex="0905"/>
  <outline>
    <contour>
      <point x="292" y="737" type="line"/>
      <point x="504" y="674"/>
      <point x="578" y="608"/>
      <point x="578" y="476" type="curve" smooth="yes"/>
      <point x="578" y="367"/>
      <point x="503" y="303"/>
      <point x="387" y="303" type="curve" smooth="yes"/>
      <point x="299" y="303"/>
      <point x="201" y="333"/>
      <point x="86" y="427" type="curve"/>
      <point x="-5" y="307" type="line"/>
      <point x="129" y="185"/>
      <point x="258" y="134"/>
      <point x="402" y="134" type="curve" smooth="yes"/>
      <point x="603" y="134"/>
      <point x="767" y="260"/>
      <point x="767" y="458" type="curve" smooth="yes"/>
      <point x="767" y="648"/>
      <point x="629" y="759"/>
      <point x="396" y="774" type="curve"/>
    </contour>
    <contour>
      <point x="286" y="1297"/>
      <point x="199" y="1272"/>
      <point x="101" y="1232" type="curve"/>
      <point x="155" y="1083" type="line"/>
      <point x="253" y="1122"/>
      <point x="323" y="1136"/>
      <point x="384" y="1136" type="curve" smooth="yes"/>
      <point x="479" y="1136"/>
      <point x="541" y="1099"/>
      <point x="541" y="1002" type="curve" smooth="yes"/>
      <point x="541" y="899"/>
      <point x="480" y="834"/>
      <point x="308" y="810" type="curve" smooth="yes"/>
      <point x="284" y="806"/>
      <point x="268" y="803"/>
      <point x="235" y="800" type="curve"/>
      <point x="248" y="645" type="line"/>
      <point x="323" y="644"/>
      <point x="438" y="653"/>
      <point x="537" y="716" type="curve" smooth="yes"/>
      <point x="652" y="784"/>
      <point x="715" y="870"/>
      <point x="715" y="1015" type="curve" smooth="yes"/>
      <point x="715" y="1194"/>
      <point x="587" y="1297"/>
      <point x="391" y="1297" type="curve" smooth="yes"/>
    </contour>
    <contour>
      <point x="933" y="685"/>
      <point x="787" y="665"/>
      <point x="625" y="679" type="curve"/>
      <point x="698" y="534" type="line"/>
      <point x="808" y="516"/>
      <point x="995" y="543"/>
      <point x="1105" y="625" type="curve"/>
      <point x="1102" y="812" type="line"/>
    </contour>
    <contour>
      <point x="1018" y="1211" type="line"/>
      <point x="1018" y="1" type="line"/>
      <point x="1209" y="1" type="line"/>
      <point x="1209" y="1211" type="line"/>
    </contour>
    <contour>
      <point x="847" y="1277" type="line"/>
      <point x="847" y="1114" type="line"/>
      <point x="1411" y="1114" type="line"/>
      <point x="1411" y="1277" type="line"/>
    </contour>
    <contour>
      <point x="1113" y="1167" type="move" name="top"/>
    </contour>
    <contour>
      <point x="1120" y="27" type="move" name="bottom"/>
    </contour>
    <contour>
      <point x="1113" y="1167" type="move" name="topcandra"/>
    </contour>
  </outline>
</glyph>
<glyph name="e-deva" format="1">
  <advance width="1049"/>
  <unicode hex="090F"/>
  <outline>
    <contour>
      <point x="128" y="1150" type="line"/>
      <point x="128" y="716" type="line" smooth="yes"/>
      <point x="128" y="536"/>
      <point x="177" y="475"/>
      <point x="296" y="364" type="curve" smooth="yes"/>
      <point x="528" y="149" type="line"/>
      <point x="580" y="101"/>
      <point x="603" y="54"/>
      <point x="602" y="9" type="curve" smooth="yes"/>
      <point x="602" y="-40"/>
      <point x="575" y="-76"/>
      <point x="535" y="-117" type="curve"/>
      <point x="657" y="-221" type="line"/>
      <point x="755" y="-144"/>
      <point x="790" y="-57"/>
      <point x="792" y="21" type="curve" smooth="yes"/>
      <point x="793" y="105"/>
      <point x="749" y="189"/>
      <point x="662" y="269" type="curve" smooth="yes"/>
      <point x="440" y="474" type="line" smooth="yes"/>
      <point x="323" y="581"/>
      <point x="316" y="636"/>
      <point x="316" y="719" type="curve" smooth="yes"/>
      <point x="316" y="1150" type="line"/>
    </contour>
    <contour>
      <point x="735" y="1205" type="line"/>
      <point x="735" y="749" type="line" smooth="yes"/>
      <point x="735" y="665"/>
      <point x="705" y="612"/>
      <point x="592" y="554" type="curve"/>
      <point x="698" y="408" type="line"/>
      <point x="865" y="496"/>
      <point x="925" y="609"/>
      <point x="925" y="758" type="curve" smooth="yes"/>
      <point x="925" y="1205" type="line"/>
    </contour>
    <contour>
      <point x="-19" y="1278" type="line"/>
      <point x="-19" y="1114" type="line"/>
      <point x="1067" y="1114" type="line"/>
      <point x="1067" y="1278" type="line"/>
    </contour>
    <contour>
      <point x="825" y="1167" type="move" name="top"/>
    </contour>
    <contour>
      <point x="586" y="50" type="move" name="bottom"/>
    </contour>
    <contour>
      <point x="541" y="1167" type="move" name="topcandra"/>
    </contour>
  </outline>
</glyph>
<glyph name="na-deva" format="1">
  <advance width="1058"/>
  <unicode hex="0928"/>
  <outline>
    <contour>
      <point x="683" y="1197" type="line"/>
      <point x="683" y="0" type="line"/>
      <point x="873" y="0" type="line"/>
      <point x="873" y="1197" type="line"/>
    </contour>
    <contour>
      <point x="46" y="769" type="line"/>
      <point x="46" y="618" type="line"/>
      <point x="196" y="400" type="line"/>
      <point x="330" y="400"/>
      <point x="351" y="476"/>
      <point x="351" y="570" type="curve" smooth="yes"/>
      <point x="351" y="769" type="line"/>
    </contour>
    <contour>
      <point x="174" y="769" type="line"/>
      <point x="174" y="602" type="line"/>
      <point x="783" y="602" type="line"/>
      <point x="783" y="769" type="line"/>
    </contour>
    <contour>
      <point x="-18" y="1277" type="line"/>
      <point x="-18" y="1114" type="line"/>
      <point x="1075" y="1114" type="line"/>
      <point x="1075" y="1277" type="line"/>
    </contour>
    <contour>
      <point x="249" y="72" type="move" name="nukta"/>
    </contour>
    <contour>
      <point x="779" y="1167" type="move" name="top"/>
    </contour>
    <contour>
      <point x="502" y="1167" type="move" name="topcandra"/>
    </contour>
    <contour>
      <point x="779" y="27" type="move" name="bottom"/>
    </contour>
  </outline>
</glyph>
<glyph name="ba-deva" format="1">
  <advance width="1118"/>
  <unicode hex="092C"/>
  <outline>
    <contour>
      <point x="603" y="183"/>
      <point x="751" y="238"/>
      <point x="837" y="364" type="curve"/>
      <point x="792" y="493" type="line"/>
      <point x="694" y="387"/>
      <point x="608" y="335"/>
      <point x="454" y="335" type="curve" smooth="yes"/>
      <point x="306" y="335"/>
      <point x="256" y="405"/>
      <point x="256" y="568" type="curve" smooth="yes"/>
      <point x="256" y="731"/>
      <point x="305" y="788"/>
      <point x="472" y="793" type="curve" smooth="yes"/>
      <point x="575" y="796"/>
      <point x="692" y="778"/>
      <point x="825" y="713" type="curve"/>
      <point x="820" y="845" type="line"/>
      <point x="711" y="915"/>
      <point x="605" y="946"/>
      <point x="472" y="946" type="curve" smooth="yes"/>
      <point x="214" y="946"/>
      <point x="71" y="822"/>
      <point x="71" y="570" type="curve" smooth="yes"/>
      <point x="71" y="299"/>
      <point x="232" y="183"/>
      <point x="448" y="183" type="curve" smooth="yes"/>
    </contour>
    <contour>
      <point x="788" y="392" type="line"/>
      <point x="329" y="855" type="line"/>
      <point x="235" y="759" type="line"/>
      <point x="695" y="296" type="line"/>
    </contour>
    <contour>
      <point x="933" y="0" type="line"/>
      <point x="933" y="1181" type="line"/>
      <point x="744" y="1181" type="line"/>
      <point x="744" y="0" type="line"/>
    </contour>
    <contour>
      <point x="1135" y="1114" type="line"/>
      <point x="1135" y="1277" type="line"/>
      <point x="-18" y="1277" type="line"/>
      <point x="-18" y="1114" type="line"/>
    </contour>
    <contour>
      <point x="151" y="72" type="move" name="nukta"/>
    </contour>
    <contour>
      <point x="839" y="1167" type="move" name="top"/>
    </contour>
    <contour>
      <point x="564" y="1167" type="move" name="topcandra"/>
    </contour>
    <contour>
      <point x="839" y="27" type="move" name="bottom"/>
    </contour>
  </outline>
</glyph>
<glyph name="ma-deva" format="1">
  <advance width="1182"/>
  <unicode hex="092E"/>
  <outline>
    <contour>
      <point x="807" y="1159" type="line"/>
      <point x="807" y="1" type="line"/>
      <point x="996" y="1" type="line"/>
      <point x="996" y="1159" type="line"/>
    </contour>
    <contour>
      <point x="233" y="646" type="line"/>
      <point x="50" y="624" type="line"/>
      <point x="50" y="493" type="line"/>
      <point x="231" y="292" type="line"/>
      <point x="359" y="293"/>
      <point x="385" y="356"/>
      <point x="385" y="431" type="curve" smooth="yes"/>
      <point x="385" y="646" type="line"/>
    </contour>
    <contour>
      <point x="195" y="1155" type="line"/>
      <point x="195" y="399" type="line"/>
      <point x="383" y="569" type="line"/>
      <point x="384" y="1155" type="line"/>
    </contour>
    <contour>
      <point x="201" y="642" type="line"/>
      <point x="201" y="474" type="line"/>
      <point x="959" y="474" type="line"/>
      <point x="959" y="642" type="line"/>
    </contour>
    <contour>
      <point x="-18" y="1277" type="line"/>
      <point x="-18" y="1114" type="line"/>
      <point x="1199" y="1114" type="line"/>
      <point x="1199" y="1277" type="line"/>
    </contour>
    <contour>
      <point x="311" y="72" type="move" name="nukta"/>
    </contour>
    <contour>
      <point x="902" y="1167" type="move" name="top"/>
    </contour>
    <contour>
      <point x="616" y="1167" type="move" name="topcandra"/>
    </contour>
    <contour>
      <point x="902" y="27" type="move" name="bottom"/>
    </contour>
  </outline>
</glyph>
<glyph name="avagraha-deva" format="1">
  <advance width="862"/>
  <unicode hex="093D"/>
  <outline>
    <contour>
      <point x="414" y="1277" type="line" smooth="yes"/>
      <point x="215" y="1277"/>
      <point x="84" y="1188"/>
      <point x="84" y="981" type="curve" smooth="yes"/>
      <point x="84" y="810"/>
      <point x="182" y="726"/>
      <point x="376" y="593" type="curve" smooth="yes"/>
      <point x="539" y="479"/>
      <point x="662" y="401"/>
      <point x="660" y="272" type="curve" smooth="yes"/>
      <point x="659" y="152"/>
      <point x="597" y="93"/>
      <point x="446" y="93" type="curve" smooth="yes"/>
      <point x="309" y="93"/>
      <point x="219" y="138"/>
      <point x="86" y="212" type="curve"/>
      <point x="13" y="85" type="line"/>
      <point x="131" y="-12"/>
      <point x="291" y="-68"/>
      <point x="446" y="-68" type="curve" smooth="yes"/>
      <point x="702" y="-68"/>
      <point x="837" y="86"/>
      <point x="837" y="284" type="curve" smooth="yes"/>
      <point x="837" y="468"/>
      <point x="719" y="570"/>
      <point x="526" y="707" type="curve" smooth="yes"/>
      <point x="329" y="846"/>
      <point x="267" y="884"/>
      <point x="266" y="977" type="curve" smooth="yes"/>
      <point x="264" y="1077"/>
      <point x="335" y="1114"/>
      <point x="437" y="1114" type="curve" smooth="yes"/>
      <point x="805" y="1114" type="line"/>
      <point x="805" y="1277" type="line"/>
    </contour>
  </outline>
</glyph>
<glyph name="halant-deva" format="1">
  <advance width="540"/>
  <unicode hex="094D"/>
  <outline>
    <contour>
      <point x="40" y="-64"/>
      <point x="-4" y="-71"/>
      <point x="-66" y="-79" type="curve"/>
      <point x="-38" y="-251" type="line"/>
      <point x="23" y="-244"/>
      <point x="61" y="-240"/>
      <point x="115" y="-240" type="curve" smooth="yes"/>
      <point x="250" y="-240"/>
      <point x="326" y="-265"/>
      <point x="569" y="-499" type="curve"/>
      <point x="657" y="-412" type="line"/>
      <point x="396" y="-127"/>
      <point x="271" y="-64"/>
      <point x="102" y="-64" type="curve" smooth="yes"/>
    </contour>
    <contour>
      <point x="128" y="27" type="move" name="_bottom"/>
    </contour>
  </outline>
</glyph>
<glyph name="llVocalic-deva" format="1">
  <advance width="1280"/>
  <unicode hex="0961"/>
  <outline>
    <contour>
      <point x="965" y="165"/>
      <point x="880" y="32"/>
      <point x="880" y="-80" type="curve" smooth="yes"/>
      <point x="880" y="-220"/>
      <point x="988" y="-322"/>
      <point x="1157" y="-318" type="curve" smooth="yes"/>
      <point x="1264" y="-316"/>
      <point x="1368" y="-281"/>
      <point x="1446" y="-223" type="curve"/>
      <point x="1383" y="-96" type="line"/>
      <point x="1318" y="-139"/>
      <point x="1237" y="-169"/>
      <point x="1167" y="-171" type="curve" smooth="yes"/>
      <point x="1087" y="-172"/>
      <point x="1053" y="-140"/>
      <point x="1053" y="-80" type="curve" smooth="yes"/>
      <point x="1053" y="-16"/>
      <point x="1109" y="26"/>
      <point x="1257" y="43" type="curve"/>
      <point x="1238" y="180" type="line"/>
    </contour>
    <contour>
      <point x="-18" y="1277" type="line"/>
      <point x="-18" y="1114" type="line"/>
      <point x="1290" y="1114" type="line"/>
      <point x="1290" y="1277" type="line"/>
    </contour>
    <contour>
      <point x="857" y="1170" type="line"/>
      <point x="857" y="838" type="line"/>
      <point x="1047" y="838" type="line"/>
      <point x="1047" y="1170" type="line"/>
    </contour>
    <contour>
      <point x="675" y="937"/>
      <point x="555" y="781"/>
      <point x="555" y="575" type="curve" smooth="yes"/>
      <point x="555" y="534"/>
      <point x="559" y="493"/>
      <point x="573" y="455" type="curve"/>
      <point x="738" y="473" type="line"/>
      <point x="734" y="503"/>
      <point x="731" y="530"/>
      <point x="731" y="558" type="curve" smooth="yes"/>
      <point x="731" y="679"/>
      <point x="788" y="763"/>
      <point x="891" y="763" type="curve" smooth="yes"/>
      <point x="999" y="763"/>
      <point x="1043" y="679"/>
      <point x="1043" y="563" type="curve" smooth="yes"/>
      <point x="1043" y="533"/>
      <point x="1041" y="508"/>
      <point x="1035" y="478" type="curve"/>
      <point x="1064" y="526" type="line"/>
      <point x="939" y="510"/>
      <point x="801" y="440"/>
      <point x="802" y="308" type="curve" smooth="yes"/>
      <point x="802" y="227"/>
      <point x="831" y="110"/>
      <point x="1095" y="66" type="curve"/>
      <point x="1181" y="137" type="line"/>
      <point x="1025" y="162"/>
      <point x="983" y="223"/>
      <point x="983" y="281" type="curve" smooth="yes"/>
      <point x="983" y="362"/>
      <point x="1071" y="387"/>
      <point x="1201" y="402" type="curve"/>
      <point x="1214" y="458"/>
      <point x="1220" y="513"/>
      <point x="1220" y="561" type="curve" smooth="yes"/>
      <point x="1220" y="791"/>
      <point x="1105" y="937"/>
      <point x="883" y="937" type="curve" smooth="yes"/>
    </contour>
    <contour>
      <point x="171" y="935"/>
      <point x="59" y="814"/>
      <point x="59" y="600" type="curve" smooth="yes"/>
      <point x="59" y="339"/>
      <point x="220" y="132"/>
      <point x="310" y="26" type="curve"/>
      <point x="445" y="140" type="line"/>
      <point x="338" y="278"/>
      <point x="245" y="419"/>
      <point x="245" y="574" type="curve" smooth="yes"/>
      <point x="245" y="716"/>
      <point x="318" y="760"/>
      <point x="388" y="760" type="curve" smooth="yes"/>
      <point x="497" y="760"/>
      <point x="569" y="675"/>
      <point x="641" y="550" type="curve"/>
      <point x="664" y="675" type="line"/>
      <point x="591" y="860"/>
      <point x="489" y="935"/>
      <point x="345" y="935" type="curve" smooth="yes"/>
    </contour>
    <contour>
      <point x="952" y="1167" type="move" name="top"/>
    </contour>
    <contour>
      <point x="697" y="30" type="move" name="bottom"/>
    </contour>
    <contour>
      <point x="641" y="1167" type="move" name="topcandra"/>
    </contour>
  </outline>
</glyph>
<glyph name="p.sups" format="1">
  <advance width="770"/>
  <unicode hex="1D56"/>
  <outline>
    <contour>
      <point x="102" y="253" type="line" name="hr01"/>
      <point x="245" y="253" type="line"/>
      <point x="245" y="462" type="line"/>
      <point x="236" y="591" type="line"/>
      <point x="291" y="543"/>
      <point x="360" y="516"/>
      <point x="420" y="516" type="curve" smooth="yes"/>
      <point x="569" y="516"/>
      <point x="705" y="647"/>
      <point x="705" y="876" type="curve" smooth="yes"/>
      <point x="705" y="1078"/>
      <point x="609" y="1211"/>
      <point x="439" y="1211" type="curve" smooth="yes" name="hr02"/>
      <point x="361" y="1211"/>
      <point x="289" y="1167"/>
      <point x="236" y="1120" type="curve"/>
      <point x="230" y="1120" type="line"/>
      <point x="216" y="1195" type="line" name="hr03"/>
      <point x="102" y="1195" type="line"/>
    </contour>
    <contour>
      <point x="245" y="693" type="curve"/>
      <point x="245" y="1012" type="line" name="hr04"/>
      <point x="299" y="1064"/>
      <point x="352" y="1093"/>
      <point x="402" y="1093" type="curve" smooth="yes"/>
      <point x="510" y="1093"/>
      <point x="558" y="1011"/>
      <point x="558" y="873" type="curve" smooth="yes"/>
      <point x="558" y="718"/>
      <point x="487" y="633"/>
      <point x="394" y="633" type="curve" smooth="yes"/>
      <point x="350" y="633"/>
      <point x="296" y="649"/>
    </contour>
  </outline>
</glyph>
<glyph name="dagger" format="1">
  <advance width="951"/>
  <unicode hex="2020"/>
  <outline>
    <contour>
      <point x="394" y="-164" type="line" name="hr00"/>
      <point x="556" y="-164" type="line"/>
      <point x="544" y="986" type="line"/>
      <point x="844" y="974" type="line"/>
      <point x="844" y="1138" type="line"/>
      <point x="544" y="1125" type="line"/>
      <point x="556" y="1458" type="line"/>
      <point x="394" y="1458" type="line"/>
      <point x="406" y="1125" type="line"/>
      <point x="107" y="1138" type="line"/>
      <point x="107" y="974" type="line"/>
      <point x="406" y="986" type="line"/>
    </contour>
  </outline>
</glyph>
<glyph name="perthousand" format="1">
  <advance width="2466"/>
  <unicode hex="2030"/>
  <outline>
    <contour>
      <point x="539" y="-25" type="line" name="hr00"/>
      <point x="1277" y="1367" type="line"/>
      <point x="1151" y="1367" type="line"/>
      <point x="414" y="-25" type="line"/>
    </contour>
    <contour>
      <point x="378" y="519" type="curve" smooth="yes"/>
      <point x="562" y="519"/>
      <point x="689" y="675"/>
      <point x="689" y="945" type="curve" smooth="yes"/>
      <point x="689" y="1215"/>
      <point x="562" y="1367"/>
      <point x="378" y="1367" type="curve" smooth="yes"/>
      <point x="193" y="1367"/>
      <point x="69" y="1215"/>
      <point x="69" y="945" type="curve" smooth="yes"/>
      <point x="69" y="675"/>
      <point x="193" y="519"/>
    </contour>
    <contour>
      <point x="378" y="635" type="curve" smooth="yes"/>
      <point x="279" y="635"/>
      <point x="211" y="736"/>
      <point x="211" y="945" type="curve" smooth="yes"/>
      <point x="211" y="1155"/>
      <point x="279" y="1251"/>
      <point x="378" y="1251" type="curve" smooth="yes"/>
      <point x="476" y="1251"/>
      <point x="545" y="1155"/>
      <point x="545" y="945" type="curve" smooth="yes"/>
      <point x="545" y="736"/>
      <point x="476" y="635"/>
    </contour>
    <contour>
      <point x="1318" y="-25" type="curve" smooth="yes"/>
      <point x="1504" y="-25"/>
      <point x="1628" y="130"/>
      <point x="1628" y="401" type="curve" smooth="yes"/>
      <point x="1628" y="670"/>
      <point x="1504" y="823"/>
      <point x="1318" y="823" type="curve" smooth="yes"/>
      <point x="1134" y="823"/>
      <point x="1007" y="670"/>
      <point x="1007" y="401" type="curve" smooth="yes"/>
      <point x="1007" y="130"/>
      <point x="1134" y="-25"/>
    </contour>
    <contour>
      <point x="1318" y="92" type="curve" smooth="yes"/>
      <point x="1220" y="92"/>
      <point x="1151" y="192"/>
      <point x="1151" y="401" type="curve" smooth="yes"/>
      <point x="1151" y="610"/>
      <point x="1220" y="707"/>
      <point x="1318" y="707" type="curve" smooth="yes"/>
      <point x="1417" y="707"/>
      <point x="1486" y="610"/>
      <point x="1486" y="401" type="curve" smooth="yes"/>
      <point x="1486" y="192"/>
      <point x="1417" y="92"/>
    </contour>
    <contour>
      <point x="2087" y="-25" type="curve" smooth="yes"/>
      <point x="2274" y="-25"/>
      <point x="2400" y="130"/>
      <point x="2400" y="401" type="curve" smooth="yes"/>
      <point x="2400" y="670"/>
      <point x="2274" y="823"/>
      <point x="2087" y="823" type="curve" smooth="yes"/>
      <point x="1903" y="823"/>
      <point x="1777" y="670"/>
      <point x="1777" y="401" type="curve" smooth="yes"/>
      <point x="1777" y="130"/>
      <point x="1903" y="-25"/>
    </contour>
    <contour>
      <point x="2087" y="92" type="curve" smooth="yes"/>
      <point x="1990" y="92"/>
      <point x="1921" y="192"/>
      <point x="1921" y="401" type="curve" smooth="yes"/>
      <point x="1921" y="610"/>
      <point x="1990" y="707"/>
      <point x="2087" y="707" type="curve" smooth="yes"/>
      <point x="2187" y="707"/>
      <point x="2256" y="610"/>
      <point x="2256" y="401" type="curve" smooth="yes"/>
      <point x="2256" y="192"/>
      <point x="2187" y="92"/>
    </contour>
  </outline>
</glyph>
<glyph name="one.subs" format="1">
  <advance width="755"/>
  <unicode hex="2081"/>
  <outline>
    <contour>
      <point x="349" y="-443" type="line" name="hr00"/>
      <point x="497" y="-443" type="line"/>
      <point x="497" y="356" type="line"/>
      <point x="378" y="356" type="line"/>
      <point x="321" y="313"/>
      <point x="268" y="289"/>
      <point x="174" y="272" type="curve"/>
      <point x="174" y="178" type="line"/>
      <point x="349" y="178" type="line"/>
    </contour>
  </outline>
</glyph>
<glyph name="Euro" format="1">
  <advance width="1030"/>
  <unicode hex="20AC"/>
  <outline>
    <contour>
      <point x="904" y="268" type="line" name="hr00"/>
      <point x="837" y="178"/>
      <point x="768" y="129"/>
      <point x="672" y="129" type="curve" smooth="yes"/>
      <point x="514" y="129"/>
      <point x="410" y="258"/>
      <point x="375" y="473" type="curve"/>
      <point x="796" y="473" type="line"/>
      <point x="796" y="583" type="line"/>
      <point x="363" y="583" type="line"/>
      <point x="361" y="605"/>
      <point x="361" y="631"/>
      <point x="361" y="656" type="curve" smooth="yes"/>
      <point x="361" y="676"/>
      <point x="361" y="695"/>
      <point x="363" y="713" type="curve"/>
      <point x="878" y="713" type="line"/>
      <point x="878" y="823" type="line"/>
      <point x="373" y="823" type="line"/>
      <point x="406" y="1044"/>
      <point x="512" y="1177"/>
      <point x="681" y="1177" type="curve" smooth="yes"/>
      <point x="764" y="1177"/>
      <point x="829" y="1130"/>
      <point x="886" y="1062" type="curve"/>
      <point x="998" y="1170" type="line"/>
      <point x="923" y="1263"/>
      <point x="811" y="1330"/>
      <point x="688" y="1330" type="curve" smooth="yes"/>
      <point x="419" y="1330"/>
      <point x="226" y="1141"/>
      <point x="177" y="822" type="curve"/>
      <point x="46" y="812" type="line"/>
      <point x="46" y="713" type="line"/>
      <point x="165" y="713" type="line"/>
      <point x="163" y="693"/>
      <point x="163" y="672"/>
      <point x="163" y="650" type="curve" smooth="yes"/>
      <point x="163" y="627"/>
      <point x="163" y="603"/>
      <point x="165" y="580" type="curve"/>
      <point x="46" y="571" type="line"/>
      <point x="46" y="473" type="line"/>
      <point x="177" y="473" type="line"/>
      <point x="226" y="157"/>
      <point x="413" y="-25"/>
      <point x="660" y="-25" type="curve" smooth="yes"/>
      <point x="809" y="-25"/>
      <point x="924" y="46"/>
      <point x="1016" y="166" type="curve"/>
    </contour>
  </outline>
</glyph>
<glyph name="arrowup" format="1">
  <advance width="1267"/>
  <unicode hex="2191"/>
  <outline>
    <contour>
      <point x="629" y="1080" type="line" name="hr00"/>
      <point x="85" y="521" type="line"/>
      <point x="191" y="424" type="line"/>
      <point x="554" y="817" type="line"/>
      <point x="554" y="-51" type="line"/>
      <point x="711" y="-51" type="line"/>
      <point x="711" y="817" type="line"/>
      <point x="1073" y="424" type="line"/>
      <point x="1182" y="521" type="line"/>
      <point x="637" y="1080" type="line"/>
    </contour>
  </outline>
</glyph>
<glyph name="arrowright" format="1">
  <advance width="1267"/>
  <unicode hex="2192"/>
  <outline>
    <contour>
      <point x="1212" y="512" type="line" name="hr00"/>
      <point x="1212" y="520" type="line"/>
      <point x="652" y="1064" type="line"/>
      <point x="554" y="957" type="line"/>
      <point x="947" y="595" type="line"/>
      <point x="80" y="595" type="line"/>
      <point x="80" y="437" type="line"/>
      <point x="947" y="437" type="line"/>
      <point x="554" y="75" type="line"/>
      <point x="652" y="-32" type="line"/>
    </contour>
  </outline>
</glyph>
<glyph name="uni2206" format="1">
  <advance width="1234"/>
  <unicode hex="2206"/>
  <outline>
    <contour>
      <point x="63" y="0" type="line" name="hr01"/>
      <point x="1173" y="0" type="line"/>
      <point x="1173" y="117" type="line"/>
      <point x="731" y="1352" type="line"/>
      <point x="504" y="1352" type="line"/>
      <point x="63" y="117" type="line"/>
    </contour>
    <contour>
      <point x="283" y="165" type="line"/>
      <point x="488" y="758" type="line"/>
      <point x="615" y="1156" type="line" name="hr02"/>
      <point x="623" y="1156" type="line"/>
      <point x="747" y="758" type="line"/>
      <point x="953" y="165" type="line"/>
    </contour>
  </outline>
</glyph>
<glyph name="uni2215" format="1">
  <advance width="180"/>
  <unicode hex="2215"/>
  <outline>
    <contour>
      <point x="-218" y="-25" type="line" name="hr00"/>
      <point x="520" y="1367" type="line"/>
      <point x="394" y="1367" type="line"/>
      <point x="-343" y="-25" type="line"/>
    </contour>
  </outline>
</glyph>
<glyph name="whiteuppointingtriangle" format="1">
  <advance width="1177"/>
  <unicode hex="25B3"/>
  <outline>
    <contour>
      <point x="899" y="205" type="line"/>
      <point x="282" y="205" type="line"/>
      <point x="590" y="812" type="line"/>
    </contour>
    <contour>
      <point x="46" y="76" type="line"/>
      <point x="46" y="72" type="line"/>
      <point x="1131" y="72" type="line"/>
      <point x="1131" y="76" type="line"/>
      <point x="594" y="1098" type="line"/>
      <point x="586" y="1098" type="line"/>
    </contour>
  </outline>
</glyph>
<glyph name="whiteleftpointingtriangle" format="1">
  <advance width="1177"/>
  <unicode hex="25C1"/>
  <outline>
    <contour>
      <point x="926" y="268" type="line"/>
      <point x="326" y="578" type="line"/>
      <point x="926" y="885" type="line"/>
    </contour>
    <contour>
      <point x="1062" y="34" type="line"/>
      <point x="1062" y="1119" type="line"/>
      <point x="1058" y="1119" type="line"/>
      <point x="36" y="582" type="line"/>
      <point x="36" y="573" type="line"/>
      <point x="1058" y="34" type="line"/>
    </contour>
  </outline>
</glyph>
<glyph name="blackDiamond" format="1">
  <advance width="642"/>
  <unicode hex="25C6"/>
  <outline>
    <contour>
      <point x="23" y="539" type="line"/>
      <point x="321" y="243" type="line"/>
      <point x="616" y="539" type="line"/>
      <point x="321" y="834" type="line"/>
    </contour>
  </outline>
</glyph>
<glyph name="uni2611" format="1">
  <advance width="1639"/>
  <unicode hex="2611"/>
  <outline>
    <contour>
      <point x="1329" y="73" type="line"/>
      <point x="245" y="73" type="line"/>
      <point x="245" y="1219" type="line"/>
      <point x="1193" y="1219" type="line"/>
      <point x="1023" y="961"/>
      <point x="880" y="663"/>
      <point x="794" y="369" type="curve"/>
      <point x="785" y="369" type="line"/>
      <point x="730" y="538"/>
      <point x="648" y="710"/>
      <point x="549" y="866" type="curve"/>
      <point x="420" y="780" type="line"/>
      <point x="539" y="603"/>
      <point x="633" y="423"/>
      <point x="707" y="214" type="curve"/>
      <point x="903" y="237" type="line"/>
      <point x="1000" y="587"/>
      <point x="1152" y="895"/>
      <point x="1329" y="1146" type="curve"/>
    </contour>
    <contour>
      <point x="1528" y="1635" type="line"/>
      <point x="1451" y="1558"/>
      <point x="1376" y="1472"/>
      <point x="1303" y="1375" type="curve"/>
      <point x="281" y="1375" type="line"/>
      <point x="152" y="1266" type="line"/>
      <point x="152" y="-20" type="line"/>
      <point x="1375" y="-20" type="line"/>
      <point x="1488" y="109" type="line"/>
      <point x="1488" y="1353" type="line"/>
      <point x="1541" y="1414"/>
      <point x="1595" y="1471"/>
      <point x="1650" y="1522" type="curve"/>
    </contour>
  </outline>
</glyph>
<glyph name="Idieresis.a" format="1">
  <advance width="724"/>
  <outline>
    <contour>
      <point x="96" y="0" type="line"/>
      <point x="624" y="0" type="line"/>
      <point x="624" y="165" type="line"/>
      <point x="458" y="165" type="line"/>
      <point x="458" y="1178" type="line"/>
      <point x="624" y="1178" type="line"/>
      <point x="624" y="1342" type="line"/>
      <point x="96" y="1342" type="line"/>
      <point x="96" y="1178" type="line"/>
      <point x="264" y="1178" type="line"/>
      <point x="264" y="165" type="line"/>
      <point x="96" y="165" type="line"/>
    </contour>
    <contour>
      <point x="181" y="1459" type="curve" smooth="yes"/>
      <point x="243" y="1459"/>
      <point x="289" y="1505"/>
      <point x="289" y="1567" type="curve" smooth="yes"/>
      <point x="289" y="1630"/>
      <point x="243" y="1675"/>
      <point x="181" y="1675" type="curve" smooth="yes"/>
      <point x="117" y="1675"/>
      <point x="73" y="1630"/>
      <point x="73" y="1567" type="curve" smooth="yes"/>
      <point x="73" y="1505"/>
      <point x="117" y="1459"/>
    </contour>
    <contour>
      <point x="543" y="1459" type="curve" smooth="yes"/>
      <point x="607" y="1459"/>
      <point x="652" y="1505"/>
      <point x="652" y="1567" type="curve" smooth="yes"/>
      <point x="652" y="1630"/>
      <point x="607" y="1675"/>
      <point x="543" y="1675" type="curve" smooth="yes"/>
      <point x="481" y="1675"/>
      <point x="435" y="1630"/>
      <point x="435" y="1567" type="curve" smooth="yes"/>
      <point x="435" y="1505"/>
      <point x="481" y="1459"/>
    </contour>
  </outline>
</glyph>
<glyph name="Idotaccent.a" format="1">
  <advance width="724"/>
  <outline>
    <contour>
      <point x="96" y="0" type="line"/>
      <point x="624" y="0" type="line"/>
      <point x="624" y="165" type="line"/>
      <point x="458" y="165" type="line"/>
      <point x="458" y="1178" type="line"/>
      <point x="624" y="1178" type="line"/>
      <point x="624" y="1342" type="line"/>
      <point x="96" y="1342" type="line"/>
      <point x="96" y="1178" type="line"/>
      <point x="264" y="1178" type="line"/>
      <point x="264" y="165" type="line"/>
      <point x="96" y="165" type="line"/>
    </contour>
    <contour>
      <point x="362" y="1457" type="curve" smooth="yes"/>
      <point x="434" y="1457"/>
      <point x="489" y="1506"/>
      <point x="489" y="1577" type="curve" smooth="yes"/>
      <point x="489" y="1645"/>
      <point x="434" y="1694"/>
      <point x="362" y="1694" type="curve" smooth="yes"/>
      <point x="290" y="1694"/>
      <point x="235" y="1645"/>
      <point x="235" y="1577" type="curve" smooth="yes"/>
      <point x="235" y="1506"/>
      <point x="290" y="1457"/>
    </contour>
  </outline>
</glyph>
<glyph name="Imacron.a" format="1">
  <advance width="724"/>
  <outline>
    <contour>
      <point x="96" y="0" type="line"/>
      <point x="624" y="0" type="line"/>
      <point x="624" y="165" type="line"/>
      <point x="458" y="165" type="line"/>
      <point x="458" y="1178" type="line"/>
      <point x="624" y="1178" type="line"/>
      <point x="624" y="1342" type="line"/>
      <point x="96" y="1342" type="line"/>
      <point x="96" y="1178" type="line"/>
      <point x="264" y="1178" type="line"/>
      <point x="264" y="165" type="line"/>
      <point x="96" y="165" type="line"/>
    </contour>
    <contour>
      <point x="101" y="1490" type="line"/>
      <point x="622" y="1490" type="line"/>
      <point x="622" y="1620" type="line"/>
      <point x="101" y="1620" type="line"/>
    </contour>
  </outline>
</glyph>
<glyph name="Iogonek.a" format="1">
  <advance width="724"/>
  <outline>
    <contour>
      <point x="96" y="0" type="line"/>
      <point x="311" y="0" type="line"/>
      <point x="248" y="-51"/>
      <point x="171" y="-144"/>
      <point x="171" y="-257" type="curve" smooth="yes"/>
      <point x="171" y="-376"/>
      <point x="262" y="-438"/>
      <point x="372" y="-438" type="curve" smooth="yes"/>
      <point x="431" y="-438"/>
      <point x="504" y="-411"/>
      <point x="545" y="-378" type="curve"/>
      <point x="494" y="-275" type="line"/>
      <point x="471" y="-293"/>
      <point x="446" y="-304"/>
      <point x="414" y="-304" type="curve" smooth="yes"/>
      <point x="366" y="-304"/>
      <point x="318" y="-275"/>
      <point x="318" y="-213" type="curve" smooth="yes"/>
      <point x="318" y="-138"/>
      <point x="366" y="-62"/>
      <point x="444" y="0" type="curve"/>
      <point x="624" y="0" type="line"/>
      <point x="624" y="165" type="line"/>
      <point x="458" y="165" type="line"/>
      <point x="458" y="1178" type="line"/>
      <point x="624" y="1178" type="line"/>
      <point x="624" y="1342" type="line"/>
      <point x="96" y="1342" type="line"/>
      <point x="96" y="1178" type="line"/>
      <point x="264" y="1178" type="line"/>
      <point x="264" y="165" type="line"/>
      <point x="96" y="165" type="line"/>
    </contour>
    <contour>
      <point x="360" y="1387" type="move" name="mark0"/>
    </contour>
  </outline>
</glyph>
<glyph name="aiMatra_reph-deva" format="1">
  <advance width="540"/>
  <outline>
    <component base="aiMatra-deva"/>
    <component base="reph-deva" xOffset="61" yOffset="-9"/>
    <contour>
      <point x="444" y="1474" type="move" name="topcandra"/>
    </contour>
    <contour>
      <point x="254" y="1167" type="move" name="_top"/>
    </contour>
  </outline>
</glyph>
<glyph name="aiMatra_reph_anusvara-deva" format="1">
  <advance width="540"/>
  <outline>
    <component base="aiMatra-deva"/>
    <component base="reph_anusvara-deva" xOffset="38"/>
    <contour>
      <point x="444" y="1474" type="move" name="topcandra"/>
    </contour>
    <contour>
      <point x="254" y="1167" type="move" name="_top"/>
    </contour>
  </outline>
</glyph>
<glyph name="auMatra_reph_anusvara-deva" format="1">
  <advance width="559"/>
  <outline>
    <component base="aaMatra-deva"/>
    <component base="aiMatra-deva" xOffset="49"/>
    <component base="reph_anusvara-deva" xOffset="93"/>
    <contour>
      <point x="445" y="1613" type="move" name="topcandra"/>
    </contour>
  </outline>
</glyph>
<glyph name="b_j_ya-deva" format="1">
  <advance width="2736"/>
  <outline>
    <contour>
      <point x="263" y="947"/>
      <point x="61" y="872"/>
      <point x="61" y="565" type="curve" smooth="yes"/>
      <point x="61" y="374"/>
      <point x="145" y="184"/>
      <point x="413" y="184" type="curve" smooth="yes"/>
      <point x="577" y="184"/>
      <point x="733" y="258"/>
      <point x="837" y="403" type="curve"/>
      <point x="798" y="585" type="line"/>
      <point x="711" y="434"/>
      <point x="604" y="334"/>
      <point x="445" y="334" type="curve" smooth="yes"/>
      <point x="308" y="334"/>
      <point x="247" y="395"/>
      <point x="247" y="556" type="curve" smooth="yes"/>
      <point x="247" y="748"/>
      <point x="318" y="794"/>
      <point x="476" y="794" type="curve" smooth="yes"/>
      <point x="541" y="794"/>
      <point x="579" y="792"/>
      <point x="622" y="777" type="curve"/>
      <point x="657" y="916" type="line"/>
      <point x="602" y="939"/>
      <point x="534" y="947"/>
      <point x="473" y="947" type="curve" smooth="yes"/>
    </contour>
    <contour>
      <point x="225" y="759" type="line"/>
      <point x="685" y="296" type="line"/>
      <point x="778" y="392" type="line"/>
      <point x="319" y="855" type="line"/>
    </contour>
    <contour>
      <point x="1169" y="774" type="line"/>
      <point x="1288" y="718"/>
      <point x="1341" y="641"/>
      <point x="1341" y="540" type="curve" smooth="yes"/>
      <point x="1341" y="441"/>
      <point x="1285" y="379"/>
      <point x="1176" y="377" type="curve" smooth="yes"/>
      <point x="927" y="374"/>
      <point x="885" y="708"/>
      <point x="862" y="898" type="curve"/>
      <point x="711" y="878" type="line"/>
      <point x="733" y="488"/>
      <point x="854" y="200"/>
      <point x="1188" y="200" type="curve" smooth="yes"/>
      <point x="1391" y="200"/>
      <point x="1526" y="317"/>
      <point x="1526" y="499" type="curve" smooth="yes"/>
      <point x="1526" y="644"/>
      <point x="1457" y="721"/>
      <point x="1316" y="795" type="curve"/>
      <point x="1230" y="905" type="line"/>
    </contour>
    <contour>
      <point x="1230" y="905" type="line"/>
      <point x="1301" y="751" type="line"/>
      <point x="1900" y="751" type="line"/>
      <point x="1900" y="905" type="line"/>
    </contour>
    <contour>
      <point x="-18" y="1277" type="line"/>
      <point x="-18" y="1114" type="line"/>
      <point x="1614" y="1114" type="line"/>
      <point x="1614" y="1277" type="line"/>
    </contour>
    <component base="ya-deva" xOffset="1578"/>
  </outline>
</glyph>
<glyph name="b_la-deva.loclMAR" format="1">
  <advance width="1187"/>
  <outline>
    <contour>
      <point x="244" y="964"/>
      <point x="114" y="848"/>
      <point x="114" y="625" type="curve" smooth="yes"/>
      <point x="114" y="433"/>
      <point x="200" y="271"/>
      <point x="492" y="271" type="curve" smooth="yes"/>
      <point x="658" y="271"/>
      <point x="789" y="333"/>
      <point x="868" y="448" type="curve"/>
      <point x="832" y="585" type="line"/>
      <point x="751" y="484"/>
      <point x="653" y="426"/>
      <point x="517" y="426" type="curve" smooth="yes"/>
      <point x="362" y="426"/>
      <point x="299" y="465"/>
      <point x="299" y="614" type="curve" smooth="yes"/>
      <point x="299" y="750"/>
      <point x="365" y="801"/>
      <point x="537" y="803" type="curve" smooth="yes"/>
      <point x="648" y="805"/>
      <point x="761" y="788"/>
      <point x="870" y="759" type="curve"/>
      <point x="866" y="847" type="line"/>
      <point x="787" y="926"/>
      <point x="669" y="964"/>
      <point x="505" y="964" type="curve" smooth="yes"/>
    </contour>
    <contour>
      <point x="-18" y="1277" type="line"/>
      <point x="-18" y="1114" type="line"/>
      <point x="1204" y="1114" type="line"/>
      <point x="1204" y="1277" type="line"/>
    </contour>
    <contour>
      <point x="794" y="1196" type="line"/>
      <point x="794" y="43" type="line"/>
      <point x="983" y="43" type="line"/>
      <point x="983" y="1196" type="line"/>
    </contour>
    <contour>
      <point x="340" y="776" type="line"/>
      <point x="730" y="382" type="line"/>
      <point x="814" y="472" type="line"/>
      <point x="424" y="867" type="line"/>
    </contour>
    <contour>
      <point x="629" y="183"/>
      <point x="517" y="31"/>
      <point x="517" y="-166" type="curve" smooth="yes"/>
      <point x="517" y="-207"/>
      <point x="521" y="-247"/>
      <point x="535" y="-284" type="curve"/>
      <point x="696" y="-266" type="line"/>
      <point x="691" y="-238"/>
      <point x="689" y="-211"/>
      <point x="689" y="-183" type="curve" smooth="yes"/>
      <point x="689" y="-68"/>
      <point x="741" y="13"/>
      <point x="845" y="13" type="curve" smooth="yes"/>
      <point x="937" y="13"/>
      <point x="994" y="-44"/>
      <point x="994" y="-145" type="curve" smooth="yes"/>
      <point x="994" y="-238"/>
      <point x="967" y="-340"/>
      <point x="794" y="-467" type="curve"/>
      <point x="888" y="-594" type="line"/>
      <point x="1103" y="-462"/>
      <point x="1168" y="-282"/>
      <point x="1168" y="-149" type="curve" smooth="yes"/>
      <point x="1168" y="56"/>
      <point x="1045" y="183"/>
      <point x="839" y="183" type="curve" smooth="yes"/>
    </contour>
    <contour>
      <point x="133" y="181"/>
      <point x="20" y="63"/>
      <point x="20" y="-118" type="curve" smooth="yes"/>
      <point x="20" y="-344"/>
      <point x="152" y="-484"/>
      <point x="329" y="-589" type="curve"/>
      <point x="410" y="-461" type="line"/>
      <point x="257" y="-364"/>
      <point x="203" y="-270"/>
      <point x="203" y="-144" type="curve" smooth="yes"/>
      <point x="203" y="-32"/>
      <point x="274" y="10"/>
      <point x="355" y="10" type="curve" smooth="yes"/>
      <point x="460" y="10"/>
      <point x="533" y="-74"/>
      <point x="602" y="-193" type="curve"/>
      <point x="624" y="-71" type="line"/>
      <point x="554" y="107"/>
      <point x="453" y="181"/>
      <point x="313" y="181" type="curve" smooth="yes"/>
    </contour>
    <contour>
      <point x="891" y="1167" type="move" name="top"/>
    </contour>
    <contour>
      <point x="840" y="-482" type="move" name="bottom"/>
    </contour>
    <contour>
      <point x="561" y="1167" type="move" name="topcandra"/>
    </contour>
  </outline>
</glyph>
<glyph name="b_na-deva" format="1">
  <advance width="1118"/>
  <outline>
    <contour>
      <point x="845" y="348" type="line"/>
      <point x="743" y="435" type="line"/>
      <point x="164" y="50" type="line"/>
      <point x="229" y="-73" type="line"/>
      <point x="447" y="-160" type="line"/>
      <point x="487" y="-129"/>
      <point x="503" y="-99"/>
      <point x="504" y="-71" type="curve" smooth="yes"/>
      <point x="505" y="-44"/>
      <point x="496" y="-18"/>
      <point x="482" y="4" type="curve" smooth="yes"/>
      <point x="436" y="76" type="line"/>
      <point x="419" y="17" type="line"/>
    </contour>
    <component base="ba-deva"/>
  </outline>
</glyph>
<glyph name="b_r-deva" format="1">
  <advance width="606"/>
  <outline>
    <contour>
      <point x="813" y="364" type="line" smooth="yes"/>
      <point x="743" y="447" type="line"/>
      <point x="131" y="49" type="line"/>
      <point x="237" y="-88" type="line"/>
    </contour>
    <contour>
      <point x="280" y="947"/>
      <point x="77" y="872"/>
      <point x="77" y="565" type="curve" smooth="yes"/>
      <point x="77" y="374"/>
      <point x="161" y="199"/>
      <point x="429" y="199" type="curve" smooth="yes"/>
      <point x="586" y="199"/>
      <point x="717" y="279"/>
      <point x="844" y="393" type="curve"/>
      <point x="814" y="585" type="line"/>
      <point x="685" y="435"/>
      <point x="576" y="334"/>
      <point x="461" y="334" type="curve" smooth="yes"/>
      <point x="324" y="334"/>
      <point x="263" y="395"/>
      <point x="263" y="556" type="curve" smooth="yes"/>
      <point x="263" y="748"/>
      <point x="334" y="790"/>
      <point x="492" y="793" type="curve" smooth="yes"/>
      <point x="590" y="796"/>
      <point x="746" y="758"/>
      <point x="858" y="666" type="curve"/>
      <point x="901" y="812" type="line"/>
      <point x="822" y="894"/>
      <point x="639" y="946"/>
      <point x="489" y="947" type="curve" smooth="yes"/>
    </contour>
    <contour>
      <point x="-18" y="1277" type="line"/>
      <point x="-18" y="1114" type="line"/>
      <point x="616" y="1114" type="line"/>
      <point x="616" y="1277" type="line"/>
    </contour>
    <contour>
      <point x="245" y="759" type="line"/>
      <point x="701" y="299" type="line"/>
      <point x="801" y="406" type="line"/>
      <point x="345" y="866" type="line"/>
    </contour>
  </outline>
</glyph>
<glyph name="b_ra-deva" format="1">
  <advance width="1117"/>
  <outline>
    <contour>
      <point x="839" y="343" type="line"/>
      <point x="773" y="446" type="line"/>
      <point x="155" y="49" type="line"/>
      <point x="261" y="-88" type="line"/>
    </contour>
    <component base="ba-deva"/>
    <contour>
      <point x="844" y="1167" type="move" name="top"/>
    </contour>
    <contour>
      <point x="844" y="27" type="move" name="bottom"/>
    </contour>
    <contour>
      <point x="557" y="1167" type="move" name="topcandra"/>
    </contour>
  </outline>
</glyph>
<glyph name="bh-deva" format="1">
  <advance width="649"/>
  <outline>
    <contour>
      <point x="170" y="1298"/>
      <point x="122" y="1289"/>
      <point x="76" y="1272" type="curve"/>
      <point x="99" y="1114" type="line"/>
      <point x="131" y="1121"/>
      <point x="166" y="1128"/>
      <point x="199" y="1128" type="curve" smooth="yes"/>
      <point x="252" y="1129"/>
      <point x="283" y="1107"/>
      <point x="283" y="1037" type="curve" smooth="yes"/>
      <point x="283" y="549" type="line"/>
      <point x="472" y="549" type="line"/>
      <point x="472" y="1033" type="line" smooth="yes"/>
      <point x="472" y="1162"/>
      <point x="451" y="1298"/>
      <point x="234" y="1298" type="curve" smooth="yes"/>
    </contour>
    <contour>
      <point x="319" y="648" type="line"/>
      <point x="136" y="627" type="line"/>
      <point x="136" y="496" type="line"/>
      <point x="317" y="294" type="line"/>
      <point x="444" y="295"/>
      <point x="471" y="358"/>
      <point x="471" y="433" type="curve" smooth="yes"/>
      <point x="471" y="648" type="line"/>
    </contour>
    <contour>
      <point x="288" y="643" type="line"/>
      <point x="288" y="475" type="line"/>
      <point x="888" y="475" type="line"/>
      <point x="888" y="643" type="line"/>
    </contour>
  </outline>
</glyph>
<glyph name="caronvertical" format="1">
  <advance width="341"/>
  <outline>
    <contour>
      <point x="204" y="1122" type="line" name="hr00"/>
      <point x="237" y="1439" type="line"/>
      <point x="239" y="1560" type="line"/>
      <point x="105" y="1560" type="line"/>
      <point x="113" y="1122" type="line"/>
    </contour>
    <contour>
      <point x="172" y="1050" type="move" name="_top"/>
    </contour>
  </outline>
</glyph>
<glyph name="ch_la-deva.loclMAR" format="1">
  <advance width="1335"/>
  <outline>
    <contour>
      <point x="775" y="1049"/>
      <point x="690" y="949"/>
      <point x="691" y="812" type="curve" smooth="yes"/>
      <point x="691" y="715"/>
      <point x="734" y="639"/>
      <point x="808" y="586" type="curve"/>
      <point x="909" y="670" type="line"/>
      <point x="876" y="712"/>
      <point x="863" y="747"/>
      <point x="863" y="790" type="curve" smooth="yes"/>
      <point x="863" y="857"/>
      <point x="902" y="903"/>
      <point x="969" y="903" type="curve" smooth="yes"/>
      <point x="1048" y="903"/>
      <point x="1093" y="851"/>
      <point x="1094" y="744" type="curve" smooth="yes"/>
      <point x="1094" y="570"/>
      <point x="864" y="405"/>
      <point x="561" y="405" type="curve" smooth="yes"/>
      <point x="345" y="405"/>
      <point x="281" y="481"/>
      <point x="281" y="561" type="curve" smooth="yes"/>
      <point x="281" y="682"/>
      <point x="397" y="707"/>
      <point x="560" y="712" type="curve"/>
      <point x="557" y="869" type="line"/>
      <point x="541" y="869"/>
      <point x="524" y="870"/>
      <point x="511" y="869" type="curve" smooth="yes"/>
      <point x="287" y="867"/>
      <point x="87" y="765"/>
      <point x="87" y="559" type="curve" smooth="yes"/>
      <point x="87" y="387"/>
      <point x="232" y="236"/>
      <point x="565" y="236" type="curve" smooth="yes"/>
      <point x="955" y="236"/>
      <point x="1268" y="468"/>
      <point x="1268" y="747" type="curve" smooth="yes"/>
      <point x="1268" y="950"/>
      <point x="1143" y="1050"/>
      <point x="965" y="1050" type="curve" smooth="yes"/>
    </contour>
    <contour>
      <point x="-18" y="1277" type="line"/>
      <point x="-18" y="1114" type="line"/>
      <point x="1352" y="1114" type="line"/>
      <point x="1352" y="1277" type="line"/>
    </contour>
    <contour>
      <point x="872" y="1243" type="line"/>
      <point x="872" y="964" type="line"/>
      <point x="1057" y="964" type="line"/>
      <point x="1057" y="1243" type="line"/>
    </contour>
    <contour>
      <point x="299" y="1228"/>
      <point x="77" y="1182"/>
      <point x="77" y="1001" type="curve" smooth="yes"/>
      <point x="77" y="903"/>
      <point x="144" y="789"/>
      <point x="365" y="719" type="curve"/>
      <point x="453" y="791" type="line"/>
      <point x="367" y="810"/>
      <point x="268" y="888"/>
      <point x="268" y="972" type="curve" smooth="yes"/>
      <point x="268" y="1079"/>
      <point x="351" y="1117"/>
      <point x="478" y="1118" type="curve"/>
      <point x="495" y="1234" type="line"/>
    </contour>
    <contour>
      <point x="872" y="414" type="line"/>
      <point x="872" y="89" type="line"/>
      <point x="1057" y="89" type="line"/>
      <point x="1057" y="414" type="line"/>
    </contour>
    <contour>
      <point x="676" y="143"/>
      <point x="564" y="-9"/>
      <point x="564" y="-206" type="curve" smooth="yes"/>
      <point x="564" y="-247"/>
      <point x="568" y="-287"/>
      <point x="582" y="-324" type="curve"/>
      <point x="743" y="-306" type="line"/>
      <point x="738" y="-278"/>
      <point x="736" y="-251"/>
      <point x="736" y="-223" type="curve" smooth="yes"/>
      <point x="736" y="-108"/>
      <point x="788" y="-27"/>
      <point x="892" y="-27" type="curve" smooth="yes"/>
      <point x="984" y="-27"/>
      <point x="1041" y="-84"/>
      <point x="1041" y="-185" type="curve" smooth="yes"/>
      <point x="1041" y="-278"/>
      <point x="1014" y="-380"/>
      <point x="841" y="-507" type="curve"/>
      <point x="935" y="-634" type="line"/>
      <point x="1150" y="-502"/>
      <point x="1215" y="-322"/>
      <point x="1215" y="-189" type="curve" smooth="yes"/>
      <point x="1215" y="16"/>
      <point x="1092" y="143"/>
      <point x="886" y="143" type="curve" smooth="yes"/>
    </contour>
    <contour>
      <point x="180" y="141"/>
      <point x="67" y="23"/>
      <point x="67" y="-158" type="curve" smooth="yes"/>
      <point x="67" y="-384"/>
      <point x="199" y="-524"/>
      <point x="376" y="-629" type="curve"/>
      <point x="457" y="-501" type="line"/>
      <point x="304" y="-404"/>
      <point x="250" y="-310"/>
      <point x="250" y="-184" type="curve" smooth="yes"/>
      <point x="250" y="-72"/>
      <point x="321" y="-31"/>
      <point x="402" y="-31" type="curve" smooth="yes"/>
      <point x="507" y="-31"/>
      <point x="580" y="-114"/>
      <point x="649" y="-233" type="curve"/>
      <point x="671" y="-111" type="line"/>
      <point x="601" y="67"/>
      <point x="500" y="141"/>
      <point x="360" y="141" type="curve" smooth="yes"/>
    </contour>
    <contour>
      <point x="966" y="1167" type="move" name="top"/>
    </contour>
    <contour>
      <point x="886" y="-522" type="move" name="bottom"/>
    </contour>
    <contour>
      <point x="680" y="1167" type="move" name="topcandra"/>
    </contour>
  </outline>
</glyph>
<glyph name="comma.dnom" format="1">
  <advance width="374"/>
  <outline>
    <contour>
      <point x="102" y="-243" type="line" name="hr01"/>
      <point x="230" y="-198"/>
      <point x="307" y="-95"/>
      <point x="307" y="33" type="curve" smooth="yes"/>
      <point x="307" y="136"/>
      <point x="264" y="191"/>
      <point x="192" y="191" type="curve" smooth="yes" name="hr02"/>
      <point x="136" y="191"/>
      <point x="89" y="151"/>
      <point x="89" y="92" type="curve" smooth="yes"/>
      <point x="89" y="30"/>
      <point x="137" y="-1"/>
      <point x="188" y="-1" type="curve" smooth="yes" name="hr03"/>
      <point x="193" y="-1"/>
      <point x="198" y="-1"/>
      <point x="203" y="0" type="curve"/>
      <point x="201" y="-78"/>
      <point x="150" y="-129"/>
      <point x="67" y="-161" type="curve"/>
    </contour>
  </outline>
</glyph>
<glyph name="d_dh_r_ya-deva" format="1">
  <advance width="2396"/>
  <outline>
    <contour>
      <point x="892" y="1145" type="line"/>
      <point x="892" y="846" type="line"/>
      <point x="1012" y="874" type="line"/>
      <point x="931" y="898"/>
      <point x="865" y="906"/>
      <point x="812" y="906" type="curve" smooth="yes"/>
      <point x="469" y="906"/>
      <point x="335" y="746"/>
      <point x="335" y="503" type="curve" smooth="yes"/>
      <point x="335" y="251"/>
      <point x="490" y="68"/>
      <point x="818" y="68" type="curve" smooth="yes"/>
      <point x="926" y="68"/>
      <point x="1014" y="89"/>
      <point x="1096" y="144" type="curve" smooth="yes"/>
      <point x="1157" y="184"/>
      <point x="1194" y="262"/>
      <point x="1194" y="324" type="curve" smooth="yes"/>
      <point x="1194" y="424"/>
      <point x="1099" y="497"/>
      <point x="987" y="527" type="curve"/>
      <point x="881" y="444" type="line"/>
      <point x="982" y="233" type="line"/>
      <point x="1062" y="315" type="line"/>
      <point x="965" y="251"/>
      <point x="909" y="227"/>
      <point x="803" y="227" type="curve" smooth="yes"/>
      <point x="629" y="227"/>
      <point x="532" y="292"/>
      <point x="532" y="480" type="curve" smooth="yes"/>
      <point x="532" y="688"/>
      <point x="643" y="738"/>
      <point x="858" y="738" type="curve" smooth="yes"/>
      <point x="963" y="738"/>
      <point x="1029" y="740"/>
      <point x="1081" y="740" type="curve"/>
      <point x="1081" y="1145" type="line"/>
    </contour>
    <contour>
      <point x="196" y="494"/>
      <point x="46" y="374"/>
      <point x="45" y="190" type="curve" smooth="yes"/>
      <point x="44" y="42"/>
      <point x="150" y="-68"/>
      <point x="312" y="-81" type="curve" smooth="yes"/>
      <point x="357" y="-86"/>
      <point x="404" y="-82"/>
      <point x="457" y="-74" type="curve"/>
      <point x="511" y="34" type="line"/>
      <point x="476" y="33"/>
      <point x="442" y="33"/>
      <point x="412" y="37" type="curve" smooth="yes"/>
      <point x="293" y="42"/>
      <point x="218" y="81"/>
      <point x="218" y="186" type="curve" smooth="yes"/>
      <point x="217" y="278"/>
      <point x="280" y="348"/>
      <point x="397" y="387" type="curve"/>
      <point x="356" y="531" type="line"/>
    </contour>
    <contour>
      <point x="975" y="-72"/>
      <point x="858" y="-263"/>
      <point x="681" y="-263" type="curve" smooth="yes"/>
      <point x="609" y="-263"/>
      <point x="551" y="-221"/>
      <point x="551" y="-133" type="curve" smooth="yes"/>
      <point x="551" y="-14"/>
      <point x="659" y="52"/>
      <point x="738" y="95" type="curve"/>
      <point x="687" y="220" type="line"/>
      <point x="587" y="171"/>
      <point x="373" y="75"/>
      <point x="373" y="-133" type="curve" smooth="yes"/>
      <point x="373" y="-310"/>
      <point x="510" y="-419"/>
      <point x="688" y="-419" type="curve" smooth="yes"/>
      <point x="1031" y="-419"/>
      <point x="1135" y="-31"/>
      <point x="1117" y="207" type="curve"/>
      <point x="997" y="257" type="line"/>
    </contour>
    <contour>
      <point x="903" y="-470" type="line"/>
      <point x="999" y="-593" type="line"/>
      <point x="1407" y="-253" type="line"/>
      <point x="1341" y="-155" type="line"/>
    </contour>
    <contour>
      <point x="1022" y="215" type="line"/>
      <point x="1392" y="-445" type="line"/>
      <point x="1526" y="-356" type="line"/>
      <point x="1120" y="266" type="line"/>
    </contour>
    <contour>
      <point x="1004" y="899" type="line"/>
      <point x="988" y="739" type="line"/>
      <point x="1426" y="739" type="line" smooth="yes"/>
      <point x="1493" y="739"/>
      <point x="1536" y="724"/>
      <point x="1536" y="687" type="curve" smooth="yes"/>
      <point x="1536" y="633"/>
      <point x="1463" y="585"/>
      <point x="1277" y="538" type="curve"/>
      <point x="1330" y="258"/>
      <point x="1496" y="101"/>
      <point x="1737" y="101" type="curve" smooth="yes"/>
      <point x="1866" y="101"/>
      <point x="1963" y="147"/>
      <point x="2047" y="234" type="curve"/>
      <point x="2057" y="466" type="line"/>
      <point x="1974" y="329"/>
      <point x="1841" y="274"/>
      <point x="1723" y="274" type="curve" smooth="yes"/>
      <point x="1593" y="274"/>
      <point x="1493" y="341"/>
      <point x="1456" y="493" type="curve"/>
      <point x="1439" y="422" type="line"/>
      <point x="1545" y="455"/>
      <point x="1709" y="518"/>
      <point x="1709" y="696" type="curve" smooth="yes"/>
      <point x="1709" y="846"/>
      <point x="1597" y="901"/>
      <point x="1400" y="900" type="curve" smooth="yes"/>
    </contour>
    <contour>
      <point x="-18" y="1277" type="line"/>
      <point x="-18" y="1114" type="line"/>
      <point x="2413" y="1114" type="line"/>
      <point x="2413" y="1277" type="line"/>
    </contour>
    <contour>
      <point x="2022" y="1141" type="line"/>
      <point x="2022" y="0" type="line"/>
      <point x="2211" y="0" type="line"/>
      <point x="2211" y="1141" type="line"/>
    </contour>
    <contour>
      <point x="2116" y="1167" type="move" name="top"/>
    </contour>
    <contour>
      <point x="2116" y="27" type="move" name="bottom"/>
    </contour>
    <contour>
      <point x="2127" y="1167" type="move" name="topcandra"/>
    </contour>
  </outline>
</glyph>
<glyph name="d_ya-deva" format="1">
  <advance width="1251"/>
  <outline>
    <contour>
      <point x="555" y="621" type="line"/>
      <point x="198" y="616"/>
      <point x="106" y="456"/>
      <point x="106" y="318" type="curve" smooth="yes"/>
      <point x="106" y="151"/>
      <point x="227" y="19"/>
      <point x="460" y="19" type="curve" smooth="yes"/>
      <point x="691" y="19"/>
      <point x="851" y="153"/>
      <point x="941" y="258" type="curve"/>
      <point x="918" y="450" type="line"/>
      <point x="824" y="307"/>
      <point x="651" y="182"/>
      <point x="457" y="182" type="curve" smooth="yes"/>
      <point x="345" y="182"/>
      <point x="295" y="232"/>
      <point x="295" y="302" type="curve" smooth="yes"/>
      <point x="295" y="405"/>
      <point x="371" y="454"/>
      <point x="567" y="464" type="curve"/>
    </contour>
    <contour>
      <point x="532" y="963" type="line"/>
      <point x="334" y="961" type="line" smooth="yes"/>
      <point x="140" y="960"/>
      <point x="60" y="884"/>
      <point x="60" y="754" type="curve" smooth="yes"/>
      <point x="60" y="639"/>
      <point x="151" y="519"/>
      <point x="257" y="461" type="curve"/>
      <point x="319" y="560" type="line"/>
      <point x="252" y="600"/>
      <point x="226" y="668"/>
      <point x="226" y="719" type="curve" smooth="yes"/>
      <point x="226" y="762"/>
      <point x="243" y="795"/>
      <point x="394" y="795" type="curve" smooth="yes"/>
      <point x="551" y="795" type="line"/>
    </contour>
    <contour>
      <point x="619" y="1198" type="line"/>
      <point x="433" y="1198" type="line"/>
      <point x="433" y="795" type="line"/>
      <point x="620" y="795" type="line"/>
    </contour>
    <contour>
      <point x="876" y="1219" type="line"/>
      <point x="876" y="-14" type="line"/>
      <point x="1065" y="-14" type="line"/>
      <point x="1065" y="1219" type="line"/>
    </contour>
    <contour>
      <point x="-18" y="1277" type="line"/>
      <point x="-18" y="1114" type="line"/>
      <point x="1268" y="1114" type="line"/>
      <point x="1268" y="1277" type="line"/>
    </contour>
    <contour>
      <point x="971" y="1167" type="move" name="top"/>
    </contour>
    <contour>
      <point x="971" y="27" type="move" name="bottom"/>
    </contour>
    <contour>
      <point x="733" y="1167" type="move" name="topcandra"/>
    </contour>
  </outline>
</glyph>
<glyph name="dd_dda-deva" format="1">
  <advance width="1072"/>
  <outline>
    <contour>
      <point x="430" y="976" type="line" smooth="yes"/>
      <point x="247" y="976"/>
      <point x="166" y="917"/>
      <point x="166" y="788" type="curve" smooth="yes"/>
      <point x="166" y="678"/>
      <point x="225" y="560"/>
      <point x="292" y="505" type="curve"/>
      <point x="324" y="479"/>
      <point x="346" y="478"/>
      <point x="365" y="480" type="curve" smooth="yes"/>
      <point x="424" y="485"/>
      <point x="565" y="504"/>
      <point x="677" y="504" type="curve" smooth="yes"/>
      <point x="793" y="504"/>
      <point x="820" y="478"/>
      <point x="820" y="413" type="curve" smooth="yes"/>
      <point x="820" y="330"/>
      <point x="752" y="292"/>
      <point x="590" y="292" type="curve" smooth="yes"/>
      <point x="387" y="292"/>
      <point x="294" y="346"/>
      <point x="180" y="461" type="curve"/>
      <point x="86" y="369" type="line"/>
      <point x="229" y="197"/>
      <point x="401" y="139"/>
      <point x="580" y="137" type="curve" smooth="yes"/>
      <point x="808" y="137"/>
      <point x="994" y="208"/>
      <point x="994" y="433" type="curve" smooth="yes"/>
      <point x="994" y="641"/>
      <point x="835" y="666"/>
      <point x="654" y="664" type="curve" smooth="yes"/>
      <point x="545" y="664"/>
      <point x="417" y="649"/>
      <point x="343" y="635" type="curve"/>
      <point x="363" y="622" type="line"/>
      <point x="352" y="629"/>
      <point x="330" y="683"/>
      <point x="330" y="734" type="curve" smooth="yes"/>
      <point x="330" y="798"/>
      <point x="358" y="816"/>
      <point x="478" y="816" type="curve" smooth="yes"/>
      <point x="812" y="816" type="line"/>
      <point x="791" y="976" type="line"/>
    </contour>
    <contour>
      <point x="251" y="251"/>
      <point x="173" y="175"/>
      <point x="173" y="70" type="curve" smooth="yes"/>
      <point x="181" y="-29"/>
      <point x="234" y="-137"/>
      <point x="297" y="-188" type="curve" smooth="yes"/>
      <point x="329" y="-214"/>
      <point x="351" y="-215"/>
      <point x="370" y="-213" type="curve" smooth="yes"/>
      <point x="429" y="-207"/>
      <point x="570" y="-189"/>
      <point x="682" y="-189" type="curve" smooth="yes"/>
      <point x="798" y="-189"/>
      <point x="825" y="-215"/>
      <point x="825" y="-280" type="curve" smooth="yes"/>
      <point x="825" y="-361"/>
      <point x="757" y="-401"/>
      <point x="595" y="-401" type="curve" smooth="yes"/>
      <point x="388" y="-401"/>
      <point x="300" y="-346"/>
      <point x="186" y="-230" type="curve"/>
      <point x="91" y="-323" type="line"/>
      <point x="224" y="-493"/>
      <point x="411" y="-557"/>
      <point x="585" y="-557" type="curve" smooth="yes"/>
      <point x="813" y="-557"/>
      <point x="999" y="-483"/>
      <point x="999" y="-260" type="curve" smooth="yes"/>
      <point x="999" y="-51"/>
      <point x="840" y="-27"/>
      <point x="659" y="-28" type="curve" smooth="yes"/>
      <point x="550" y="-29"/>
      <point x="422" y="-44"/>
      <point x="348" y="-57" type="curve"/>
      <point x="369" y="-70" type="line"/>
      <point x="357" y="-63"/>
      <point x="335" y="-9"/>
      <point x="335" y="40" type="curve" smooth="yes"/>
      <point x="335" y="93"/>
      <point x="367" y="137"/>
      <point x="491" y="137" type="curve" smooth="yes"/>
      <point x="579" y="137" type="line"/>
      <point x="437" y="249" type="line"/>
    </contour>
    <contour>
      <point x="-18" y="1277" type="line"/>
      <point x="-18" y="1114" type="line"/>
      <point x="1089" y="1114" type="line"/>
      <point x="1089" y="1277" type="line"/>
    </contour>
    <contour>
      <point x="700" y="1227" type="line"/>
      <point x="700" y="816" type="line"/>
      <point x="883" y="816" type="line"/>
      <point x="883" y="1227" type="line"/>
    </contour>
    <contour>
      <point x="790" y="1167" type="move" name="top"/>
    </contour>
    <contour>
      <point x="686" y="-523" type="move" name="bottom"/>
    </contour>
    <contour>
      <point x="573" y="1167" type="move" name="topcandra"/>
    </contour>
  </outline>
</glyph>
<glyph name="dd_tta-deva" format="1">
  <advance width="1059"/>
  <outline>
    <contour>
      <point x="808" y="136"/>
      <point x="994" y="208"/>
      <point x="994" y="433" type="curve" smooth="yes"/>
      <point x="994" y="641"/>
      <point x="835" y="666"/>
      <point x="654" y="664" type="curve" smooth="yes"/>
      <point x="545" y="664"/>
      <point x="417" y="649"/>
      <point x="343" y="635" type="curve"/>
      <point x="363" y="622" type="line"/>
      <point x="352" y="629"/>
      <point x="330" y="683"/>
      <point x="330" y="734" type="curve" smooth="yes"/>
      <point x="330" y="798"/>
      <point x="358" y="816"/>
      <point x="478" y="816" type="curve" smooth="yes"/>
      <point x="812" y="816" type="line"/>
      <point x="791" y="976" type="line"/>
      <point x="430" y="976" type="line" smooth="yes"/>
      <point x="247" y="976"/>
      <point x="166" y="917"/>
      <point x="166" y="788" type="curve" smooth="yes"/>
      <point x="166" y="678"/>
      <point x="225" y="560"/>
      <point x="292" y="505" type="curve"/>
      <point x="324" y="479"/>
      <point x="346" y="478"/>
      <point x="365" y="480" type="curve" smooth="yes"/>
      <point x="424" y="485"/>
      <point x="565" y="504"/>
      <point x="677" y="504" type="curve" smooth="yes"/>
      <point x="793" y="504"/>
      <point x="820" y="478"/>
      <point x="820" y="413" type="curve" smooth="yes"/>
      <point x="820" y="330"/>
      <point x="752" y="292"/>
      <point x="590" y="292" type="curve" smooth="yes"/>
      <point x="387" y="292"/>
      <point x="294" y="346"/>
      <point x="180" y="461" type="curve"/>
      <point x="86" y="369" type="line"/>
      <point x="229" y="197"/>
      <point x="401" y="138"/>
      <point x="580" y="136" type="curve" smooth="yes"/>
    </contour>
    <contour>
      <point x="708" y="-433"/>
      <point x="846" y="-406"/>
      <point x="946" y="-354" type="curve"/>
      <point x="899" y="-210" type="line"/>
      <point x="790" y="-252"/>
      <point x="689" y="-276"/>
      <point x="585" y="-276" type="curve" smooth="yes"/>
      <point x="376" y="-276"/>
      <point x="314" y="-200"/>
      <point x="314" y="-64" type="curve" smooth="yes"/>
      <point x="314" y="127"/>
      <point x="517" y="137"/>
      <point x="622" y="137" type="curve"/>
      <point x="727" y="252" type="line"/>
      <point x="670" y="266"/>
      <point x="608" y="275"/>
      <point x="541" y="275" type="curve" smooth="yes"/>
      <point x="324" y="275"/>
      <point x="130" y="186"/>
      <point x="130" y="-59" type="curve" smooth="yes"/>
      <point x="130" y="-336"/>
      <point x="372" y="-433"/>
      <point x="586" y="-433" type="curve" smooth="yes"/>
    </contour>
    <contour>
      <point x="1089" y="1114" type="line"/>
      <point x="1089" y="1277" type="line"/>
      <point x="-18" y="1277" type="line"/>
      <point x="-18" y="1114" type="line"/>
    </contour>
    <contour>
      <point x="883" y="816" type="line"/>
      <point x="883" y="1227" type="line"/>
      <point x="700" y="1227" type="line"/>
      <point x="700" y="816" type="line"/>
    </contour>
  </outline>
</glyph>
<glyph name="ddh_ddha-deva" format="1">
  <advance width="1120"/>
  <outline>
    <contour>
      <point x="841" y="248"/>
      <point x="1042" y="348"/>
      <point x="1042" y="548" type="curve" smooth="yes"/>
      <point x="1042" y="683"/>
      <point x="933" y="749"/>
      <point x="804" y="749" type="curve" smooth="yes"/>
      <point x="628" y="749"/>
      <point x="565" y="652"/>
      <point x="565" y="571" type="curve" smooth="yes"/>
      <point x="565" y="488"/>
      <point x="612" y="425"/>
      <point x="694" y="371" type="curve"/>
      <point x="806" y="400" type="line"/>
      <point x="738" y="447"/>
      <point x="715" y="496"/>
      <point x="716" y="540" type="curve" smooth="yes"/>
      <point x="716" y="583"/>
      <point x="750" y="628"/>
      <point x="823" y="626" type="curve" smooth="yes"/>
      <point x="869" y="624"/>
      <point x="903" y="601"/>
      <point x="903" y="553" type="curve" smooth="yes"/>
      <point x="903" y="456"/>
      <point x="801" y="405"/>
      <point x="653" y="399" type="curve" smooth="yes"/>
      <point x="425" y="388"/>
      <point x="345" y="487"/>
      <point x="345" y="625" type="curve" smooth="yes"/>
      <point x="345" y="789"/>
      <point x="449" y="857"/>
      <point x="657" y="857" type="curve" smooth="yes"/>
      <point x="721" y="857"/>
      <point x="795" y="856"/>
      <point x="857" y="855" type="curve"/>
      <point x="856" y="1210" type="line"/>
      <point x="682" y="1210" type="line"/>
      <point x="682" y="942" type="line"/>
      <point x="716" y="982" type="line"/>
      <point x="668" y="988"/>
      <point x="620" y="991"/>
      <point x="577" y="990" type="curve" smooth="yes"/>
      <point x="276" y="989"/>
      <point x="164" y="825"/>
      <point x="164" y="632" type="curve" smooth="yes"/>
      <point x="164" y="395"/>
      <point x="345" y="248"/>
      <point x="621" y="248" type="curve" smooth="yes"/>
    </contour>
    <contour>
      <point x="842" y="-563"/>
      <point x="1043" y="-463"/>
      <point x="1043" y="-264" type="curve" smooth="yes"/>
      <point x="1043" y="-128"/>
      <point x="934" y="-62"/>
      <point x="805" y="-62" type="curve" smooth="yes"/>
      <point x="629" y="-62"/>
      <point x="566" y="-160"/>
      <point x="566" y="-241" type="curve" smooth="yes"/>
      <point x="566" y="-323"/>
      <point x="613" y="-386"/>
      <point x="695" y="-440" type="curve"/>
      <point x="807" y="-411" type="line"/>
      <point x="739" y="-364"/>
      <point x="716" y="-315"/>
      <point x="717" y="-272" type="curve" smooth="yes"/>
      <point x="717" y="-228"/>
      <point x="751" y="-183"/>
      <point x="824" y="-185" type="curve" smooth="yes"/>
      <point x="870" y="-187"/>
      <point x="904" y="-211"/>
      <point x="904" y="-258" type="curve" smooth="yes"/>
      <point x="904" y="-356"/>
      <point x="802" y="-406"/>
      <point x="654" y="-412" type="curve" smooth="yes"/>
      <point x="426" y="-423"/>
      <point x="346" y="-325"/>
      <point x="346" y="-187" type="curve" smooth="yes"/>
      <point x="346" y="-22"/>
      <point x="450" y="46"/>
      <point x="658" y="46" type="curve" smooth="yes"/>
      <point x="722" y="46"/>
      <point x="796" y="45"/>
      <point x="858" y="44" type="curve"/>
      <point x="857" y="384" type="line"/>
      <point x="683" y="384" type="line"/>
      <point x="683" y="131" type="line"/>
      <point x="717" y="171" type="line"/>
      <point x="669" y="177"/>
      <point x="621" y="180"/>
      <point x="578" y="179" type="curve" smooth="yes"/>
      <point x="277" y="178"/>
      <point x="165" y="14"/>
      <point x="165" y="-179" type="curve" smooth="yes"/>
      <point x="165" y="-417"/>
      <point x="346" y="-563"/>
      <point x="622" y="-563" type="curve" smooth="yes"/>
    </contour>
    <contour>
      <point x="1137" y="1114" type="line"/>
      <point x="1137" y="1277" type="line"/>
      <point x="-18" y="1277" type="line"/>
      <point x="-18" y="1114" type="line"/>
    </contour>
    <contour>
      <point x="769" y="1167" type="move" name="top"/>
    </contour>
    <contour>
      <point x="662" y="-510" type="move" name="bottom"/>
    </contour>
    <contour>
      <point x="536" y="1167" type="move" name="topcandra"/>
    </contour>
  </outline>
</glyph>
<glyph name="dieresis.cap" format="1">
  <advance width="0"/>
  <outline>
    <contour>
      <point x="-181" y="1459" type="curve" smooth="yes" name="hr00"/>
      <point x="-119" y="1459"/>
      <point x="-73" y="1505"/>
      <point x="-73" y="1567" type="curve" smooth="yes"/>
      <point x="-73" y="1630"/>
      <point x="-119" y="1675"/>
      <point x="-181" y="1675" type="curve" smooth="yes"/>
      <point x="-245" y="1675"/>
      <point x="-289" y="1630"/>
      <point x="-289" y="1567" type="curve" smooth="yes"/>
      <point x="-289" y="1505"/>
      <point x="-245" y="1459"/>
    </contour>
    <contour>
      <point x="181" y="1459" type="curve" smooth="yes"/>
      <point x="245" y="1459"/>
      <point x="289" y="1505"/>
      <point x="289" y="1567" type="curve" smooth="yes"/>
      <point x="289" y="1630"/>
      <point x="245" y="1675"/>
      <point x="181" y="1675" type="curve" smooth="yes"/>
      <point x="119" y="1675"/>
      <point x="73" y="1630"/>
      <point x="73" y="1567" type="curve" smooth="yes"/>
      <point x="73" y="1505"/>
      <point x="119" y="1459"/>
    </contour>
    <contour>
      <point x="0" y="1050" type="move" name="_top"/>
    </contour>
  </outline>
</glyph>
<glyph name="eight.tnum" format="1">
  <advance width="1030"/>
  <outline>
    <contour>
      <point x="256" y="363" type="curve" smooth="yes" name="hr01"/>
      <point x="256" y="475"/>
      <point x="327" y="577"/>
      <point x="423" y="644" type="curve"/>
      <point x="607" y="569"/>
      <point x="762" y="501"/>
      <point x="762" y="343" type="curve" smooth="yes"/>
      <point x="762" y="213"/>
      <point x="684" y="115"/>
      <point x="521" y="115" type="curve" smooth="yes"/>
      <point x="367" y="115"/>
      <point x="256" y="224"/>
    </contour>
    <contour>
      <point x="607" y="741" type="curve" name="hr02"/>
      <point x="454" y="800"/>
      <point x="320" y="874"/>
      <point x="320" y="1020" type="curve" smooth="yes"/>
      <point x="320" y="1142"/>
      <point x="393" y="1227"/>
      <point x="524" y="1227" type="curve" smooth="yes"/>
      <point x="661" y="1227"/>
      <point x="734" y="1129"/>
      <point x="734" y="1005" type="curve" smooth="yes"/>
      <point x="734" y="914"/>
      <point x="688" y="816"/>
    </contour>
    <contour>
      <point x="84" y="344" type="curve" smooth="yes" name="hr03"/>
      <point x="84" y="136"/>
      <point x="265" y="-25"/>
      <point x="517" y="-25" type="curve" smooth="yes"/>
      <point x="795" y="-25"/>
      <point x="946" y="139"/>
      <point x="946" y="336" type="curve" smooth="yes"/>
      <point x="946" y="511"/>
      <point x="837" y="615"/>
      <point x="719" y="682" type="curve"/>
      <point x="719" y="691" type="line"/>
      <point x="800" y="752"/>
      <point x="898" y="881"/>
      <point x="898" y="1015" type="curve" smooth="yes" name="hr04"/>
      <point x="898" y="1221"/>
      <point x="759" y="1367"/>
      <point x="529" y="1367" type="curve" smooth="yes"/>
      <point x="294" y="1367"/>
      <point x="145" y="1225"/>
      <point x="145" y="1020" type="curve" smooth="yes"/>
      <point x="145" y="883"/>
      <point x="228" y="777"/>
      <point x="326" y="708" type="curve"/>
      <point x="326" y="700" type="line"/>
      <point x="203" y="635"/>
      <point x="84" y="511"/>
    </contour>
  </outline>
</glyph>
<glyph name="h_va-deva" format="1">
  <advance width="1120"/>
  <outline>
    <contour>
      <point x="320" y="558"/>
      <point x="75" y="464"/>
      <point x="75" y="184" type="curve" smooth="yes"/>
      <point x="75" y="-82"/>
      <point x="309" y="-348"/>
      <point x="781" y="-443" type="curve"/>
      <point x="824" y="-298" type="line"/>
      <point x="397" y="-199"/>
      <point x="256" y="0"/>
      <point x="256" y="177" type="curve" smooth="yes"/>
      <point x="256" y="346"/>
      <point x="370" y="400"/>
      <point x="573" y="400" type="curve" smooth="yes"/>
      <point x="805" y="400"/>
      <point x="856" y="320"/>
      <point x="858" y="175" type="curve" smooth="yes"/>
      <point x="859" y="84"/>
      <point x="858" y="0"/>
      <point x="837" y="-127" type="curve"/>
      <point x="973" y="-133" type="line"/>
      <point x="1002" y="-24"/>
      <point x="1009" y="101"/>
      <point x="1009" y="160" type="curve" smooth="yes"/>
      <point x="1009" y="393"/>
      <point x="887" y="558"/>
      <point x="569" y="558" type="curve" smooth="yes"/>
    </contour>
    <contour>
      <point x="543" y="315"/>
      <point x="437" y="262"/>
      <point x="437" y="125" type="curve" smooth="yes"/>
      <point x="437" y="-11"/>
      <point x="533" y="-82"/>
      <point x="659" y="-82" type="curve" smooth="yes"/>
      <point x="771" y="-82"/>
      <point x="865" y="-30"/>
      <point x="904" y="37" type="curve"/>
      <point x="922" y="167" type="line"/>
      <point x="867" y="79"/>
      <point x="778" y="36"/>
      <point x="679" y="36" type="curve" smooth="yes"/>
      <point x="602" y="36"/>
      <point x="582" y="66"/>
      <point x="582" y="112" type="curve" smooth="yes"/>
      <point x="582" y="186"/>
      <point x="639" y="199"/>
      <point x="716" y="199" type="curve" smooth="yes"/>
      <point x="789" y="199"/>
      <point x="851" y="194"/>
      <point x="905" y="177" type="curve"/>
      <point x="909" y="269" type="line"/>
      <point x="833" y="298"/>
      <point x="761" y="315"/>
      <point x="673" y="315" type="curve" smooth="yes"/>
    </contour>
    <contour>
      <point x="677" y="1162" type="line"/>
      <point x="677" y="929" type="line"/>
      <point x="394" y="929" type="line" smooth="yes"/>
      <point x="193" y="929"/>
      <point x="110" y="841"/>
      <point x="110" y="724" type="curve" smooth="yes"/>
      <point x="110" y="627"/>
      <point x="169" y="531"/>
      <point x="268" y="417" type="curve"/>
      <point x="384" y="463" type="line"/>
      <point x="334" y="548"/>
      <point x="302" y="627"/>
      <point x="302" y="679" type="curve" smooth="yes"/>
      <point x="302" y="728"/>
      <point x="330" y="762"/>
      <point x="422" y="762" type="curve" smooth="yes"/>
      <point x="867" y="762" type="line"/>
      <point x="867" y="1162" type="line"/>
    </contour>
    <contour>
      <point x="-18" y="1277" type="line"/>
      <point x="-18" y="1114" type="line"/>
      <point x="1137" y="1114" type="line"/>
      <point x="1137" y="1277" type="line"/>
    </contour>
    <contour>
      <point x="774" y="1167" type="move" name="top"/>
    </contour>
    <contour>
      <point x="778" y="-302" type="move" name="bottom"/>
    </contour>
    <contour>
      <point x="606" y="1168" type="move" name="topcandra"/>
    </contour>
  </outline>
</glyph>
<glyph name="iMatra-deva.10" format="1">
  <advance width="559"/>
  <outline>
    <contour>
      <point x="430" y="1202" type="line"/>
      <point x="300" y="1337"/>
      <point x="273" y="1399"/>
      <point x="273" y="1463" type="curve" smooth="yes"/>
      <point x="273" y="1566"/>
      <point x="342" y="1624"/>
      <point x="660" y="1624" type="curve" smooth="yes"/>
      <point x="1130" y="1624"/>
      <point x="1616" y="1498"/>
      <point x="1984" y="1351" type="curve"/>
      <point x="2053" y="1460" type="line"/>
      <point x="1677" y="1664"/>
      <point x="1093" y="1797"/>
      <point x="633" y="1797" type="curve" smooth="yes"/>
      <point x="279" y="1797"/>
      <point x="78" y="1717"/>
      <point x="78" y="1512" type="curve" smooth="yes"/>
      <point x="78" y="1402"/>
      <point x="135" y="1304"/>
      <point x="268" y="1196" type="curve"/>
    </contour>
    <contour>
      <point x="374" y="1" type="line"/>
      <point x="374" y="1210" type="line"/>
      <point x="185" y="1210" type="line"/>
      <point x="185" y="1" type="line"/>
    </contour>
    <contour>
      <point x="581" y="1114" type="line"/>
      <point x="581" y="1277" type="line"/>
      <point x="-18" y="1277" type="line"/>
      <point x="-18" y="1114" type="line"/>
    </contour>
    <contour>
      <point x="2015" y="1399" type="move" name="imatra"/>
    </contour>
    <contour>
      <point x="1804" y="1415" type="move" name="top"/>
    </contour>
    <contour>
      <point x="2112" y="1325" type="move" name="topcandra"/>
    </contour>
  </outline>
</glyph>
<glyph name="iiMatra_reph-deva.02" format="1">
  <advance width="554"/>
  <outline>
    <component base="reph-deva" xOffset="63"/>
    <component base="iiMatra-deva.02"/>
    <contour>
      <point x="409" y="1600" type="move" name="topcandra"/>
    </contour>
  </outline>
</glyph>
<glyph name="iiMatra_reph_anusvara-deva.02" format="1">
  <advance width="554"/>
  <outline>
    <component base="iiMatra-deva.02"/>
    <component base="reph_anusvara-deva.imatra" xOffset="73"/>
    <contour>
      <point x="423" y="1598" type="move" name="topcandra"/>
    </contour>
  </outline>
</glyph>
<glyph name="j_j_va-deva" format="1">
  <advance width="2978"/>
  <outline>
    <contour>
      <point x="1437" y="774" type="line"/>
      <point x="1556" y="718"/>
      <point x="1609" y="641"/>
      <point x="1609" y="540" type="curve" smooth="yes"/>
      <point x="1609" y="441"/>
      <point x="1553" y="379"/>
      <point x="1444" y="377" type="curve" smooth="yes"/>
      <point x="1195" y="374"/>
      <point x="1152" y="708"/>
      <point x="1128" y="905" type="curve"/>
      <point x="978" y="885" type="line"/>
      <point x="999" y="488"/>
      <point x="1121" y="200"/>
      <point x="1455" y="200" type="curve" smooth="yes"/>
      <point x="1659" y="200"/>
      <point x="1794" y="317"/>
      <point x="1794" y="499" type="curve" smooth="yes"/>
      <point x="1794" y="644"/>
      <point x="1725" y="721"/>
      <point x="1583" y="795" type="curve"/>
      <point x="1498" y="905" type="line"/>
    </contour>
    <contour>
      <point x="508" y="774" type="line"/>
      <point x="627" y="718"/>
      <point x="680" y="641"/>
      <point x="680" y="540" type="curve" smooth="yes"/>
      <point x="680" y="441"/>
      <point x="624" y="379"/>
      <point x="515" y="377" type="curve" smooth="yes"/>
      <point x="266" y="374"/>
      <point x="224" y="708"/>
      <point x="201" y="898" type="curve"/>
      <point x="50" y="878" type="line"/>
      <point x="72" y="488"/>
      <point x="193" y="200"/>
      <point x="527" y="200" type="curve" smooth="yes"/>
      <point x="730" y="200"/>
      <point x="865" y="317"/>
      <point x="865" y="499" type="curve" smooth="yes"/>
      <point x="865" y="644"/>
      <point x="796" y="721"/>
      <point x="655" y="795" type="curve"/>
      <point x="569" y="905" type="line"/>
    </contour>
    <contour>
      <point x="-18" y="1277" type="line"/>
      <point x="-18" y="1114" type="line"/>
      <point x="953" y="1114" type="line"/>
      <point x="953" y="1277" type="line"/>
    </contour>
    <contour>
      <point x="569" y="905" type="line"/>
      <point x="632" y="745" type="line"/>
      <point x="1122" y="745" type="line"/>
      <point x="1129" y="905" type="line"/>
    </contour>
    <contour>
      <point x="904" y="1277" type="line"/>
      <point x="904" y="1114" type="line"/>
      <point x="1902" y="1114" type="line"/>
      <point x="1902" y="1277" type="line"/>
    </contour>
    <contour>
      <point x="1498" y="905" type="line"/>
      <point x="1569" y="738" type="line"/>
      <point x="2201" y="738" type="line"/>
      <point x="2201" y="905" type="line"/>
    </contour>
    <component base="va-deva" xOffset="1888"/>
  </outline>
</glyph>
<glyph name="j_tta-deva" format="1">
  <advance width="1944"/>
  <outline>
    <contour>
      <point x="1608" y="1159" type="line"/>
      <point x="1608" y="852" type="line"/>
      <point x="1631" y="893" type="line"/>
      <point x="1572" y="904"/>
      <point x="1456" y="906"/>
      <point x="1381" y="905" type="curve" smooth="yes"/>
      <point x="569" y="905" type="line"/>
      <point x="640" y="752" type="line"/>
      <point x="1149" y="752" type="line"/>
      <point x="1128" y="763" type="line"/>
      <point x="1043" y="693"/>
      <point x="998" y="600"/>
      <point x="998" y="472" type="curve" smooth="yes"/>
      <point x="998" y="169"/>
      <point x="1223" y="16"/>
      <point x="1514" y="16" type="curve" smooth="yes"/>
      <point x="1661" y="16"/>
      <point x="1806" y="49"/>
      <point x="1901" y="105" type="curve"/>
      <point x="1852" y="263" type="line"/>
      <point x="1747" y="219"/>
      <point x="1628" y="185"/>
      <point x="1501" y="185" type="curve" smooth="yes"/>
      <point x="1294" y="185"/>
      <point x="1195" y="267"/>
      <point x="1196" y="472" type="curve" smooth="yes"/>
      <point x="1197" y="660"/>
      <point x="1294" y="736"/>
      <point x="1524" y="738" type="curve" smooth="yes"/>
      <point x="1598" y="739"/>
      <point x="1729" y="734"/>
      <point x="1797" y="731" type="curve"/>
      <point x="1797" y="1159" type="line"/>
    </contour>
    <contour>
      <point x="508" y="774" type="line"/>
      <point x="627" y="718"/>
      <point x="680" y="642"/>
      <point x="680" y="530" type="curve" smooth="yes"/>
      <point x="680" y="430"/>
      <point x="624" y="368"/>
      <point x="515" y="367" type="curve" smooth="yes"/>
      <point x="266" y="363"/>
      <point x="224" y="697"/>
      <point x="201" y="888" type="curve"/>
      <point x="50" y="867" type="line"/>
      <point x="72" y="478"/>
      <point x="193" y="190"/>
      <point x="527" y="190" type="curve" smooth="yes"/>
      <point x="730" y="190"/>
      <point x="865" y="306"/>
      <point x="865" y="488" type="curve" smooth="yes"/>
      <point x="865" y="645"/>
      <point x="796" y="722"/>
      <point x="655" y="785" type="curve"/>
      <point x="569" y="906" type="line"/>
    </contour>
    <contour>
      <point x="-18" y="1277" type="line"/>
      <point x="-18" y="1114" type="line"/>
      <point x="953" y="1114" type="line"/>
      <point x="953" y="1277" type="line"/>
    </contour>
    <contour>
      <point x="912" y="1277" type="line"/>
      <point x="912" y="1114" type="line"/>
      <point x="1962" y="1114" type="line"/>
      <point x="1962" y="1277" type="line"/>
    </contour>
    <contour>
      <point x="950" y="72" type="move" name="nukta"/>
    </contour>
    <contour>
      <point x="1703" y="1167" type="move" name="top"/>
    </contour>
    <contour>
      <point x="1480" y="1167" type="move" name="topcandra"/>
    </contour>
    <contour>
      <point x="1531" y="51" type="move" name="bottom"/>
    </contour>
  </outline>
</glyph>
<glyph name="k_t_ra-deva" format="1">
  <advance width="2474"/>
  <outline>
    <contour>
      <point x="1136" y="1277" type="line"/>
      <point x="1136" y="1114" type="line"/>
      <point x="1794" y="1114" type="line"/>
      <point x="1794" y="1277" type="line"/>
    </contour>
    <contour>
      <point x="1813" y="814"/>
      <point x="1714" y="850"/>
      <point x="1588" y="850" type="curve" smooth="yes"/>
      <point x="1344" y="850"/>
      <point x="1210" y="750"/>
      <point x="1210" y="567" type="curve" smooth="yes"/>
      <point x="1210" y="365"/>
      <point x="1335" y="131"/>
      <point x="1465" y="-36" type="curve"/>
      <point x="1613" y="63" type="line"/>
      <point x="1460" y="289"/>
      <point x="1403" y="433"/>
      <point x="1403" y="539" type="curve" smooth="yes"/>
      <point x="1403" y="629"/>
      <point x="1448" y="674"/>
      <point x="1591" y="674" type="curve" smooth="yes"/>
      <point x="1710" y="674"/>
      <point x="1785" y="640"/>
      <point x="1945" y="507" type="curve"/>
      <point x="1927" y="718" type="line"/>
    </contour>
    <component base="k-deva"/>
    <component base="ra-deva" xOffset="1749"/>
  </outline>
</glyph>
<glyph name="kh_ma-deva" format="1">
  <advance width="2327"/>
  <outline>
    <contour>
      <point x="359" y="1172" type="line"/>
      <point x="359" y="808" type="line" smooth="yes"/>
      <point x="359" y="725"/>
      <point x="336" y="683"/>
      <point x="277" y="683" type="curve" smooth="yes"/>
      <point x="244" y="683"/>
      <point x="212" y="693"/>
      <point x="172" y="727" type="curve"/>
      <point x="55" y="645" type="line"/>
      <point x="268" y="113"/>
      <point x="492" y="-58"/>
      <point x="815" y="-58" type="curve" smooth="yes"/>
      <point x="889" y="-58"/>
      <point x="979" y="-48"/>
      <point x="1051" y="-19" type="curve"/>
      <point x="1017" y="138" type="line"/>
      <point x="957" y="121"/>
      <point x="885" y="107"/>
      <point x="807" y="107" type="curve" smooth="yes"/>
      <point x="584" y="107"/>
      <point x="403" y="235"/>
      <point x="268" y="585" type="curve"/>
      <point x="248" y="551" type="line"/>
      <point x="271" y="542"/>
      <point x="302" y="530"/>
      <point x="345" y="530" type="curve" smooth="yes"/>
      <point x="435" y="530"/>
      <point x="548" y="580"/>
      <point x="548" y="798" type="curve" smooth="yes"/>
      <point x="548" y="1172" type="line"/>
    </contour>
    <contour>
      <point x="797" y="960"/>
      <point x="633" y="874"/>
      <point x="632" y="604" type="curve" smooth="yes"/>
      <point x="632" y="434"/>
      <point x="712" y="263"/>
      <point x="970" y="263" type="curve" smooth="yes"/>
      <point x="1135" y="263"/>
      <point x="1266" y="351"/>
      <point x="1328" y="463" type="curve"/>
      <point x="1261" y="589" type="line"/>
      <point x="1205" y="496"/>
      <point x="1112" y="424"/>
      <point x="996" y="424" type="curve" smooth="yes"/>
      <point x="871" y="424"/>
      <point x="822" y="477"/>
      <point x="823" y="605" type="curve" smooth="yes"/>
      <point x="823" y="756"/>
      <point x="898" y="800"/>
      <point x="1039" y="800" type="curve" smooth="yes"/>
      <point x="1093" y="800"/>
      <point x="1151" y="795"/>
      <point x="1217" y="782" type="curve"/>
      <point x="1232" y="926" type="line"/>
      <point x="1170" y="950"/>
      <point x="1083" y="960"/>
      <point x="1022" y="960" type="curve" smooth="yes"/>
    </contour>
    <contour>
      <point x="-18" y="1277" type="line"/>
      <point x="-18" y="1114" type="line"/>
      <point x="1168" y="1114" type="line"/>
      <point x="1168" y="1277" type="line"/>
    </contour>
    <component base="ma-deva" xOffset="1145"/>
    <contour>
      <point x="158" y="27" type="move" name="nukta"/>
    </contour>
    <contour>
      <point x="464" y="1167" type="move" name="top"/>
    </contour>
    <contour>
      <point x="869" y="1167" type="move" name="topcandra"/>
    </contour>
    <contour>
      <point x="766" y="0" type="move" name="bottom"/>
    </contour>
  </outline>
</glyph>
<glyph name="kh_ya-deva" format="1">
  <advance width="2303"/>
  <outline>
    <contour>
      <point x="359" y="1172" type="line"/>
      <point x="359" y="808" type="line" smooth="yes"/>
      <point x="359" y="725"/>
      <point x="336" y="683"/>
      <point x="277" y="683" type="curve" smooth="yes"/>
      <point x="244" y="683"/>
      <point x="212" y="693"/>
      <point x="172" y="727" type="curve"/>
      <point x="55" y="645" type="line"/>
      <point x="268" y="113"/>
      <point x="492" y="-58"/>
      <point x="815" y="-58" type="curve" smooth="yes"/>
      <point x="889" y="-58"/>
      <point x="979" y="-48"/>
      <point x="1051" y="-19" type="curve"/>
      <point x="1017" y="138" type="line"/>
      <point x="957" y="121"/>
      <point x="885" y="107"/>
      <point x="807" y="107" type="curve" smooth="yes"/>
      <point x="584" y="107"/>
      <point x="403" y="235"/>
      <point x="268" y="585" type="curve"/>
      <point x="248" y="551" type="line"/>
      <point x="271" y="542"/>
      <point x="302" y="530"/>
      <point x="345" y="530" type="curve" smooth="yes"/>
      <point x="435" y="530"/>
      <point x="548" y="580"/>
      <point x="548" y="798" type="curve" smooth="yes"/>
      <point x="548" y="1172" type="line"/>
    </contour>
    <contour>
      <point x="797" y="970"/>
      <point x="633" y="884"/>
      <point x="632" y="614" type="curve" smooth="yes"/>
      <point x="632" y="444"/>
      <point x="712" y="273"/>
      <point x="970" y="273" type="curve" smooth="yes"/>
      <point x="1131" y="273"/>
      <point x="1262" y="361"/>
      <point x="1324" y="473" type="curve"/>
      <point x="1256" y="599" type="line"/>
      <point x="1201" y="506"/>
      <point x="1108" y="434"/>
      <point x="996" y="434" type="curve" smooth="yes"/>
      <point x="871" y="434"/>
      <point x="822" y="487"/>
      <point x="823" y="615" type="curve" smooth="yes"/>
      <point x="823" y="766"/>
      <point x="898" y="810"/>
      <point x="1039" y="810" type="curve" smooth="yes"/>
      <point x="1091" y="810"/>
      <point x="1143" y="806"/>
      <point x="1204" y="795" type="curve"/>
      <point x="1219" y="939" type="line"/>
      <point x="1159" y="961"/>
      <point x="1089" y="970"/>
      <point x="1029" y="970" type="curve" smooth="yes"/>
    </contour>
    <contour>
      <point x="-18" y="1277" type="line"/>
      <point x="-18" y="1114" type="line"/>
      <point x="1165" y="1114" type="line"/>
      <point x="1165" y="1277" type="line"/>
    </contour>
    <component base="ya-deva" xOffset="1146"/>
    <contour>
      <point x="159" y="27" type="move" name="nukta"/>
    </contour>
    <contour>
      <point x="465" y="1167" type="move" name="top"/>
    </contour>
    <contour>
      <point x="870" y="1167" type="move" name="topcandra"/>
    </contour>
    <contour>
      <point x="767" y="0" type="move" name="bottom"/>
    </contour>
  </outline>
</glyph>
<glyph name="khh_ta-deva" format="1">
  <advance width="2250"/>
  <outline>
    <contour>
      <point x="359" y="1172" type="line"/>
      <point x="359" y="808" type="line" smooth="yes"/>
      <point x="359" y="725"/>
      <point x="336" y="683"/>
      <point x="277" y="683" type="curve" smooth="yes"/>
      <point x="244" y="683"/>
      <point x="212" y="693"/>
      <point x="172" y="727" type="curve"/>
      <point x="55" y="645" type="line"/>
      <point x="268" y="113"/>
      <point x="492" y="-58"/>
      <point x="815" y="-58" type="curve" smooth="yes"/>
      <point x="889" y="-58"/>
      <point x="979" y="-48"/>
      <point x="1051" y="-19" type="curve"/>
      <point x="1017" y="138" type="line"/>
      <point x="957" y="121"/>
      <point x="885" y="107"/>
      <point x="807" y="107" type="curve" smooth="yes"/>
      <point x="584" y="107"/>
      <point x="403" y="235"/>
      <point x="268" y="585" type="curve"/>
      <point x="248" y="551" type="line"/>
      <point x="271" y="542"/>
      <point x="302" y="530"/>
      <point x="345" y="530" type="curve" smooth="yes"/>
      <point x="435" y="530"/>
      <point x="548" y="580"/>
      <point x="548" y="798" type="curve" smooth="yes"/>
      <point x="548" y="1172" type="line"/>
    </contour>
    <contour>
      <point x="799" y="970"/>
      <point x="635" y="884"/>
      <point x="634" y="614" type="curve" smooth="yes"/>
      <point x="634" y="444"/>
      <point x="714" y="273"/>
      <point x="972" y="273" type="curve" smooth="yes"/>
      <point x="1133" y="273"/>
      <point x="1266" y="361"/>
      <point x="1329" y="473" type="curve"/>
      <point x="1261" y="599" type="line"/>
      <point x="1205" y="506"/>
      <point x="1110" y="434"/>
      <point x="998" y="434" type="curve" smooth="yes"/>
      <point x="873" y="434"/>
      <point x="824" y="487"/>
      <point x="825" y="615" type="curve" smooth="yes"/>
      <point x="825" y="767"/>
      <point x="901" y="810"/>
      <point x="1041" y="810" type="curve" smooth="yes"/>
      <point x="1093" y="810"/>
      <point x="1138" y="806"/>
      <point x="1198" y="795" type="curve"/>
      <point x="1214" y="939" type="line"/>
      <point x="1154" y="961"/>
      <point x="1091" y="970"/>
      <point x="1031" y="970" type="curve" smooth="yes"/>
    </contour>
    <contour>
      <point x="-18" y="1277" type="line"/>
      <point x="-18" y="1114" type="line"/>
      <point x="1162" y="1114" type="line"/>
      <point x="1162" y="1277" type="line"/>
    </contour>
    <component base="nukta-deva" xOffset="-118"/>
    <component base="ta-deva" xOffset="1142"/>
    <contour>
      <point x="155" y="27" type="move" name="nukta"/>
    </contour>
    <contour>
      <point x="461" y="1167" type="move" name="top"/>
    </contour>
    <contour>
      <point x="867" y="1167" type="move" name="topcandra"/>
    </contour>
    <contour>
      <point x="764" y="0" type="move" name="bottom"/>
    </contour>
  </outline>
</glyph>
<glyph name="n_s_tta-deva" format="1">
  <advance width="2307"/>
  <outline>
    <contour>
      <point x="900" y="1180" type="line"/>
      <point x="900" y="800" type="line" smooth="yes"/>
      <point x="900" y="720"/>
      <point x="880" y="680"/>
      <point x="813" y="680" type="curve" smooth="yes"/>
      <point x="765" y="680"/>
      <point x="708" y="716"/>
      <point x="663" y="769" type="curve"/>
      <point x="561" y="670" type="line"/>
      <point x="1026" y="-33" type="line"/>
      <point x="1178" y="77" type="line"/>
      <point x="808" y="574" type="line"/>
      <point x="801" y="561" type="line"/>
      <point x="818" y="547"/>
      <point x="847" y="535"/>
      <point x="882" y="535" type="curve" smooth="yes"/>
      <point x="1000" y="535"/>
      <point x="1089" y="619"/>
      <point x="1089" y="797" type="curve" smooth="yes"/>
      <point x="1089" y="1180" type="line"/>
    </contour>
    <contour>
      <point x="46" y="769" type="line"/>
      <point x="46" y="618" type="line"/>
      <point x="196" y="400" type="line"/>
      <point x="330" y="400"/>
      <point x="351" y="476"/>
      <point x="351" y="570" type="curve" smooth="yes"/>
      <point x="351" y="769" type="line"/>
    </contour>
    <contour>
      <point x="174" y="769" type="line"/>
      <point x="174" y="602" type="line"/>
      <point x="673" y="602" type="line"/>
      <point x="663" y="769" type="line"/>
    </contour>
    <contour>
      <point x="954" y="569" type="line"/>
      <point x="1061" y="517"/>
      <point x="1200" y="494"/>
      <point x="1331" y="494" type="curve" smooth="yes"/>
      <point x="1393" y="494"/>
      <point x="1454" y="500"/>
      <point x="1508" y="509" type="curve"/>
      <point x="1508" y="685" type="line"/>
      <point x="1451" y="674"/>
      <point x="1385" y="664"/>
      <point x="1301" y="664" type="curve" smooth="yes"/>
      <point x="1209" y="664"/>
      <point x="1098" y="679"/>
      <point x="1009" y="716" type="curve"/>
    </contour>
    <contour>
      <point x="-18" y="1277" type="line"/>
      <point x="-18" y="1114" type="line"/>
      <point x="1342" y="1114" type="line"/>
      <point x="1342" y="1277" type="line"/>
    </contour>
    <component base="tta-deva" xOffset="1292"/>
  </outline>
</glyph>
<glyph name="n_t_sa-deva" format="1">
  <advance width="2469"/>
  <outline>
    <contour>
      <point x="735" y="850"/>
      <point x="601" y="750"/>
      <point x="601" y="567" type="curve" smooth="yes"/>
      <point x="601" y="365"/>
      <point x="726" y="131"/>
      <point x="856" y="-36" type="curve"/>
      <point x="1004" y="63" type="line"/>
      <point x="851" y="289"/>
      <point x="794" y="433"/>
      <point x="794" y="539" type="curve" smooth="yes"/>
      <point x="794" y="629"/>
      <point x="839" y="674"/>
      <point x="982" y="674" type="curve" smooth="yes"/>
      <point x="1101" y="674"/>
      <point x="1176" y="640"/>
      <point x="1336" y="507" type="curve"/>
      <point x="1318" y="718" type="line"/>
      <point x="1204" y="814"/>
      <point x="1105" y="850"/>
      <point x="979" y="850" type="curve" smooth="yes"/>
    </contour>
    <contour>
      <point x="46" y="769" type="line"/>
      <point x="46" y="618" type="line"/>
      <point x="196" y="400" type="line"/>
      <point x="330" y="400"/>
      <point x="351" y="476"/>
      <point x="351" y="570" type="curve" smooth="yes"/>
      <point x="351" y="769" type="line"/>
    </contour>
    <contour>
      <point x="174" y="769" type="line"/>
      <point x="174" y="602" type="line"/>
      <point x="756" y="602" type="line"/>
      <point x="756" y="769" type="line"/>
    </contour>
    <contour>
      <point x="-18" y="1277" type="line"/>
      <point x="-18" y="1114" type="line"/>
      <point x="572" y="1114" type="line"/>
      <point x="572" y="1277" type="line"/>
    </contour>
    <contour>
      <point x="529" y="1277" type="line"/>
      <point x="529" y="1114" type="line"/>
      <point x="1187" y="1114" type="line"/>
      <point x="1187" y="1277" type="line"/>
    </contour>
    <component base="sa-deva" xOffset="1143"/>
  </outline>
</glyph>
<glyph name="ng_ga-deva" format="1">
  <advance width="1195"/>
  <outline>
    <contour>
      <point x="273" y="-34" type="line"/>
      <point x="132" y="-69" type="line"/>
      <point x="132" y="-176" type="line"/>
      <point x="285" y="-323" type="line"/>
      <point x="412" y="-322"/>
      <point x="430" y="-260"/>
      <point x="430" y="-203" type="curve" smooth="yes"/>
      <point x="430" y="-17" type="line"/>
    </contour>
    <contour>
      <point x="257" y="260" type="line"/>
      <point x="257" y="-89" type="line"/>
      <point x="430" y="-72" type="line"/>
      <point x="430" y="260" type="line"/>
    </contour>
    <contour>
      <point x="681" y="248" type="line"/>
      <point x="681" y="-575" type="line"/>
      <point x="854" y="-575" type="line"/>
      <point x="854" y="248" type="line"/>
    </contour>
    <contour>
      <point x="956" y="818"/>
      <point x="926" y="789"/>
      <point x="926" y="720" type="curve" smooth="yes"/>
      <point x="926" y="652"/>
      <point x="956" y="623"/>
      <point x="1025" y="623" type="curve" smooth="yes"/>
      <point x="1094" y="623"/>
      <point x="1123" y="652"/>
      <point x="1123" y="720" type="curve" smooth="yes"/>
      <point x="1123" y="789"/>
      <point x="1094" y="818"/>
      <point x="1025" y="818" type="curve" smooth="yes"/>
    </contour>
    <contour>
      <point x="-18" y="1277" type="line"/>
      <point x="-18" y="1113" type="line"/>
      <point x="1212" y="1113" type="line"/>
      <point x="1212" y="1277" type="line"/>
    </contour>
    <contour>
      <point x="434" y="976" type="line" smooth="yes"/>
      <point x="251" y="976"/>
      <point x="170" y="917"/>
      <point x="170" y="787" type="curve" smooth="yes"/>
      <point x="170" y="677"/>
      <point x="229" y="559"/>
      <point x="296" y="504" type="curve"/>
      <point x="327" y="480"/>
      <point x="326" y="478"/>
      <point x="349" y="479" type="curve" smooth="yes"/>
      <point x="411" y="483"/>
      <point x="566" y="503"/>
      <point x="653" y="503" type="curve" smooth="yes"/>
      <point x="768" y="503"/>
      <point x="800" y="479"/>
      <point x="800" y="417" type="curve" smooth="yes"/>
      <point x="800" y="330"/>
      <point x="738" y="291"/>
      <point x="568" y="291" type="curve" smooth="yes"/>
      <point x="390" y="291"/>
      <point x="296" y="347"/>
      <point x="184" y="460" type="curve"/>
      <point x="90" y="361" type="line"/>
      <point x="232" y="193"/>
      <point x="402" y="131"/>
      <point x="575" y="128" type="curve" smooth="yes"/>
      <point x="783" y="125"/>
      <point x="974" y="200"/>
      <point x="974" y="433" type="curve" smooth="yes"/>
      <point x="974" y="638"/>
      <point x="816" y="667"/>
      <point x="634" y="664" type="curve" smooth="yes"/>
      <point x="544" y="662"/>
      <point x="438" y="650"/>
      <point x="347" y="635" type="curve"/>
      <point x="367" y="621" type="line"/>
      <point x="356" y="628"/>
      <point x="334" y="682"/>
      <point x="334" y="735" type="curve" smooth="yes"/>
      <point x="334" y="798"/>
      <point x="363" y="816"/>
      <point x="482" y="816" type="curve" smooth="yes"/>
      <point x="792" y="816" type="line"/>
      <point x="771" y="976" type="line"/>
    </contour>
    <contour>
      <point x="676" y="1226" type="line"/>
      <point x="676" y="816" type="line"/>
      <point x="857" y="816" type="line"/>
      <point x="857" y="1226" type="line"/>
    </contour>
    <contour>
      <point x="771" y="1167" type="move" name="top"/>
    </contour>
    <contour>
      <point x="768" y="-546" type="move" name="bottom"/>
    </contour>
    <contour>
      <point x="581" y="1167" type="move" name="topcandra"/>
    </contour>
  </outline>
</glyph>
<glyph name="nine.dnom" format="1">
  <advance width="785"/>
  <outline>
    <contour>
      <point x="372" y="401" type="curve" smooth="yes" name="hr00"/>
      <point x="280" y="401"/>
      <point x="228" y="464"/>
      <point x="228" y="554" type="curve" smooth="yes"/>
      <point x="228" y="646"/>
      <point x="286" y="707"/>
      <point x="364" y="707" type="curve" smooth="yes"/>
      <point x="457" y="707"/>
      <point x="526" y="634"/>
      <point x="538" y="484" type="curve"/>
      <point x="481" y="424"/>
      <point x="431" y="401"/>
    </contour>
    <contour>
      <point x="122" y="41" type="line"/>
      <point x="169" y="7"/>
      <point x="229" y="-25"/>
      <point x="325" y="-25" type="curve" smooth="yes"/>
      <point x="529" y="-25"/>
      <point x="678" y="125"/>
      <point x="678" y="417" type="curve" smooth="yes"/>
      <point x="678" y="669"/>
      <point x="557" y="823"/>
      <point x="361" y="823" type="curve" smooth="yes"/>
      <point x="210" y="823"/>
      <point x="94" y="706"/>
      <point x="94" y="551" type="curve" smooth="yes"/>
      <point x="94" y="398"/>
      <point x="185" y="296"/>
      <point x="344" y="296" type="curve" smooth="yes"/>
      <point x="418" y="296"/>
      <point x="483" y="324"/>
      <point x="538" y="377" type="curve"/>
      <point x="526" y="185"/>
      <point x="438" y="92"/>
      <point x="319" y="92" type="curve" smooth="yes"/>
      <point x="264" y="92"/>
      <point x="221" y="114"/>
      <point x="182" y="141" type="curve"/>
    </contour>
  </outline>
</glyph>
<glyph name="ny_ca-deva" format="1">
  <advance width="2246"/>
  <outline>
    <contour>
      <point x="544" y="864"/>
      <point x="492" y="856"/>
      <point x="448" y="836" type="curve"/>
      <point x="479" y="679" type="line"/>
      <point x="515" y="688"/>
      <point x="551" y="693"/>
      <point x="602" y="693" type="curve" smooth="yes"/>
      <point x="702" y="693"/>
      <point x="776" y="650"/>
      <point x="778" y="513" type="curve" smooth="yes"/>
      <point x="780" y="366"/>
      <point x="692" y="308"/>
      <point x="582" y="308" type="curve" smooth="yes"/>
      <point x="397" y="308"/>
      <point x="282" y="446"/>
      <point x="218" y="808" type="curve"/>
      <point x="70" y="778" type="line"/>
      <point x="140" y="263"/>
      <point x="372" y="137"/>
      <point x="586" y="137" type="curve" smooth="yes"/>
      <point x="811" y="137"/>
      <point x="952" y="268"/>
      <point x="952" y="504" type="curve" smooth="yes"/>
      <point x="952" y="748"/>
      <point x="796" y="864"/>
      <point x="602" y="864" type="curve" smooth="yes"/>
    </contour>
    <contour>
      <point x="1125" y="557"/>
      <point x="965" y="516"/>
      <point x="861" y="538" type="curve"/>
      <point x="904" y="382" type="line"/>
      <point x="993" y="358"/>
      <point x="1185" y="404"/>
      <point x="1276" y="452" type="curve"/>
      <point x="1228" y="619" type="line"/>
    </contour>
    <contour>
      <point x="-18" y="1277" type="line"/>
      <point x="-18" y="1114" type="line"/>
      <point x="1009" y="1114" type="line"/>
      <point x="1009" y="1277" type="line"/>
    </contour>
    <component base="ca-deva" xOffset="995"/>
    <contour>
      <point x="1972" y="1167" type="move" name="top"/>
    </contour>
    <contour>
      <point x="1973" y="27" type="move" name="bottom"/>
    </contour>
    <contour>
      <point x="1969" y="1167" type="move" name="topcandra"/>
    </contour>
  </outline>
</glyph>
<glyph name="oMatra_reph-deva" format="1">
  <advance width="559"/>
  <outline>
    <component base="aaMatra-deva"/>
    <component base="eMatra_reph-deva" xOffset="25"/>
    <contour>
      <point x="445" y="1613" type="move" name="topcandra"/>
    </contour>
  </outline>
</glyph>
<glyph name="one.pnum" format="1">
  <advance width="771"/>
  <outline>
    <contour>
      <point x="339" y="0" type="line" name="hr00"/>
      <point x="531" y="0" type="line"/>
      <point x="531" y="1346" type="line"/>
      <point x="385" y="1346" type="line"/>
      <point x="309" y="1300"/>
      <point x="222" y="1267"/>
      <point x="98" y="1245" type="curve"/>
      <point x="98" y="1113" type="line"/>
      <point x="339" y="1131" type="line"/>
    </contour>
  </outline>
</glyph>
<glyph name="ordfeminine.a" format="1">
  <advance width="770"/>
  <outline>
    <contour>
      <point x="212" y="876" type="curve" smooth="yes"/>
      <point x="212" y="1009"/>
      <point x="288" y="1095"/>
      <point x="378" y="1095" type="curve" smooth="yes"/>
      <point x="424" y="1095"/>
      <point x="473" y="1077"/>
      <point x="525" y="1032" type="curve"/>
      <point x="525" y="714" type="line"/>
      <point x="474" y="660"/>
      <point x="430" y="634"/>
      <point x="380" y="634" type="curve" smooth="yes"/>
      <point x="267" y="634"/>
      <point x="212" y="718"/>
    </contour>
    <contour>
      <point x="65" y="872" type="curve" smooth="yes"/>
      <point x="65" y="646"/>
      <point x="172" y="516"/>
      <point x="345" y="516" type="curve" smooth="yes"/>
      <point x="420" y="516"/>
      <point x="479" y="556"/>
      <point x="532" y="603" type="curve"/>
      <point x="540" y="603" type="line"/>
      <point x="551" y="532" type="line"/>
      <point x="667" y="532" type="line"/>
      <point x="667" y="1194" type="line"/>
      <point x="557" y="1194" type="line"/>
      <point x="544" y="1128" type="line"/>
      <point x="536" y="1128" type="line"/>
      <point x="481" y="1183"/>
      <point x="422" y="1211"/>
      <point x="353" y="1211" type="curve" smooth="yes"/>
      <point x="206" y="1211"/>
      <point x="65" y="1082"/>
    </contour>
  </outline>
</glyph>
<glyph name="seven.pnum" format="1">
  <advance width="1015"/>
  <outline>
    <contour>
      <point x="335" y="0" type="curve" name="hr00"/>
      <point x="533" y="0" type="line"/>
      <point x="556" y="510"/>
      <point x="611" y="837"/>
      <point x="915" y="1226" type="curve"/>
      <point x="915" y="1346" type="line"/>
      <point x="90" y="1346" type="line"/>
      <point x="90" y="1180" type="line"/>
      <point x="701" y="1180" type="line"/>
      <point x="449" y="825"/>
      <point x="359" y="481"/>
    </contour>
  </outline>
</glyph>
<glyph name="sh_la-deva" format="1">
  <advance width="2044"/>
  <outline>
    <contour>
      <point x="282" y="1310"/>
      <point x="149" y="1210"/>
      <point x="149" y="1034" type="curve" smooth="yes"/>
      <point x="149" y="933"/>
      <point x="198" y="832"/>
      <point x="360" y="715" type="curve"/>
      <point x="502" y="803" type="line"/>
      <point x="363" y="885"/>
      <point x="329" y="955"/>
      <point x="329" y="1020" type="curve" smooth="yes"/>
      <point x="329" y="1104"/>
      <point x="376" y="1154"/>
      <point x="475" y="1154" type="curve" smooth="yes"/>
      <point x="568" y="1154"/>
      <point x="621" y="1108"/>
      <point x="621" y="1026" type="curve" smooth="yes"/>
      <point x="621" y="934"/>
      <point x="561" y="861"/>
      <point x="438" y="790" type="curve"/>
      <point x="304" y="713"/>
      <point x="180" y="643"/>
      <point x="55" y="577" type="curve"/>
      <point x="136" y="434" type="line" smooth="yes"/>
      <point x="276" y="509"/>
      <point x="404" y="581"/>
      <point x="534" y="661" type="curve"/>
      <point x="702" y="767"/>
      <point x="805" y="869"/>
      <point x="805" y="1034" type="curve" smooth="yes"/>
      <point x="805" y="1219"/>
      <point x="673" y="1310"/>
      <point x="476" y="1310" type="curve" smooth="yes"/>
    </contour>
    <contour>
      <point x="805" y="704"/>
      <point x="693" y="583"/>
      <point x="693" y="369" type="curve" smooth="yes"/>
      <point x="693" y="108"/>
      <point x="842" y="-57"/>
      <point x="974" y="-204" type="curve"/>
      <point x="1108" y="-89" type="line"/>
      <point x="964" y="84"/>
      <point x="879" y="184"/>
      <point x="879" y="341" type="curve" smooth="yes"/>
      <point x="879" y="483"/>
      <point x="952" y="527"/>
      <point x="1037" y="527" type="curve" smooth="yes"/>
      <point x="1146" y="527"/>
      <point x="1218" y="442"/>
      <point x="1289" y="319" type="curve"/>
      <point x="1313" y="445" type="line"/>
      <point x="1240" y="629"/>
      <point x="1138" y="704"/>
      <point x="994" y="704" type="curve" smooth="yes"/>
    </contour>
    <contour>
      <point x="392" y="698" type="line"/>
      <point x="567" y="579"/>
      <point x="736" y="572"/>
      <point x="844" y="567" type="curve" smooth="yes"/>
      <point x="885" y="560"/>
      <point x="928" y="556"/>
      <point x="973" y="556" type="curve"/>
      <point x="1001" y="703" type="line"/>
      <point x="954" y="702"/>
      <point x="909" y="702"/>
      <point x="858" y="707" type="curve" smooth="yes"/>
      <point x="796" y="711"/>
      <point x="647" y="721"/>
      <point x="534" y="785" type="curve"/>
    </contour>
    <contour>
      <point x="1308" y="701"/>
      <point x="1188" y="549"/>
      <point x="1188" y="343" type="curve" smooth="yes"/>
      <point x="1188" y="302"/>
      <point x="1192" y="260"/>
      <point x="1206" y="222" type="curve"/>
      <point x="1371" y="241" type="line"/>
      <point x="1367" y="270"/>
      <point x="1364" y="298"/>
      <point x="1364" y="326" type="curve" smooth="yes"/>
      <point x="1364" y="447"/>
      <point x="1421" y="530"/>
      <point x="1526" y="530" type="curve" smooth="yes"/>
      <point x="1614" y="530"/>
      <point x="1674" y="482"/>
      <point x="1702" y="395" type="curve"/>
      <point x="1718" y="511" type="line"/>
      <point x="1696" y="637"/>
      <point x="1599" y="701"/>
      <point x="1492" y="701" type="curve" smooth="yes"/>
    </contour>
    <contour>
      <point x="1670" y="1177" type="line"/>
      <point x="1669" y="-173" type="line"/>
      <point x="1858" y="-173" type="line"/>
      <point x="1859" y="1177" type="line"/>
    </contour>
    <contour>
      <point x="882" y="1277" type="line"/>
      <point x="882" y="1114" type="line"/>
      <point x="2103" y="1114" type="line"/>
      <point x="2103" y="1277" type="line"/>
    </contour>
    <contour>
      <point x="1765" y="1167" type="move" name="top"/>
    </contour>
    <contour>
      <point x="1763" y="-146" type="move" name="bottom"/>
    </contour>
    <contour>
      <point x="1239" y="1167" type="move" name="topcandra"/>
    </contour>
  </outline>
</glyph>
<glyph name="t_na-deva" format="1">
  <advance width="1654"/>
  <outline>
    <contour>
      <point x="-18" y="1277" type="line"/>
      <point x="-18" y="1114" type="line"/>
      <point x="625" y="1114" type="line"/>
      <point x="625" y="1277" type="line"/>
    </contour>
    <contour>
      <point x="662" y="814"/>
      <point x="557" y="850"/>
      <point x="428" y="850" type="curve" smooth="yes"/>
      <point x="199" y="850"/>
      <point x="65" y="750"/>
      <point x="65" y="567" type="curve" smooth="yes"/>
      <point x="65" y="365"/>
      <point x="190" y="131"/>
      <point x="320" y="-36" type="curve"/>
      <point x="468" y="63" type="line"/>
      <point x="315" y="289"/>
      <point x="258" y="433"/>
      <point x="258" y="539" type="curve" smooth="yes"/>
      <point x="258" y="629"/>
      <point x="303" y="674"/>
      <point x="431" y="674" type="curve" smooth="yes"/>
      <point x="560" y="674"/>
      <point x="634" y="636"/>
      <point x="794" y="509" type="curve"/>
      <point x="775" y="720" type="line"/>
    </contour>
    <component base="na-deva" xOffset="596"/>
  </outline>
</glyph>
<glyph name="t_tha-deva" format="1">
  <advance width="1842"/>
  <outline>
    <contour>
      <point x="-18" y="1277" type="line"/>
      <point x="-18" y="1114" type="line"/>
      <point x="629" y="1114" type="line"/>
      <point x="629" y="1277" type="line"/>
    </contour>
    <contour>
      <point x="709" y="814"/>
      <point x="590" y="850"/>
      <point x="428" y="850" type="curve" smooth="yes"/>
      <point x="199" y="850"/>
      <point x="65" y="750"/>
      <point x="65" y="567" type="curve" smooth="yes"/>
      <point x="65" y="365"/>
      <point x="190" y="131"/>
      <point x="320" y="-36" type="curve"/>
      <point x="468" y="63" type="line"/>
      <point x="315" y="289"/>
      <point x="258" y="433"/>
      <point x="258" y="539" type="curve" smooth="yes"/>
      <point x="258" y="639"/>
      <point x="306" y="674"/>
      <point x="461" y="674" type="curve" smooth="yes"/>
      <point x="615" y="674"/>
      <point x="681" y="632"/>
      <point x="826" y="522" type="curve"/>
      <point x="808" y="734" type="line"/>
    </contour>
    <component base="tha-deva" xOffset="596"/>
  </outline>
</glyph>
<glyph name="ta_ra-deva" format="1">
  <advance width="1034"/>
  <outline>
    <contour>
      <point x="722" y="484" type="line"/>
      <point x="728" y="595" type="line"/>
      <point x="498" y="899"/>
      <point x="393" y="934"/>
      <point x="278" y="936" type="curve" smooth="yes"/>
      <point x="179" y="938"/>
      <point x="105" y="900"/>
      <point x="40" y="860" type="curve"/>
      <point x="114" y="699" type="line"/>
      <point x="192" y="739"/>
      <point x="251" y="760"/>
      <point x="303" y="759" type="curve" smooth="yes"/>
      <point x="392" y="757"/>
      <point x="467" y="692"/>
      <point x="616" y="531" type="curve"/>
      <point x="618" y="593" type="line"/>
      <point x="113" y="228" type="line"/>
      <point x="224" y="90" type="line"/>
    </contour>
    <contour>
      <point x="849" y="-1" type="line"/>
      <point x="849" y="1151" type="line"/>
      <point x="660" y="1151" type="line"/>
      <point x="660" y="-1" type="line"/>
    </contour>
    <contour>
      <point x="1051" y="1114" type="line"/>
      <point x="1051" y="1277" type="line"/>
      <point x="-18" y="1277" type="line"/>
      <point x="-18" y="1114" type="line"/>
    </contour>
    <contour>
      <point x="755" y="1167" type="move" name="top"/>
    </contour>
    <contour>
      <point x="755" y="27" type="move" name="bottom"/>
    </contour>
    <contour>
      <point x="556" y="1167" type="move" name="topcandra"/>
    </contour>
  </outline>
</glyph>
<glyph name="th-deva" format="1">
  <advance width="708"/>
  <outline>
    <contour>
      <point x="277" y="588" type="line"/>
      <point x="447" y="648"/>
      <point x="648" y="778"/>
      <point x="648" y="997" type="curve" smooth="yes"/>
      <point x="648" y="1133"/>
      <point x="556" y="1296"/>
      <point x="340" y="1296" type="curve" smooth="yes"/>
      <point x="168" y="1296"/>
      <point x="83" y="1195"/>
      <point x="85" y="1084" type="curve" smooth="yes"/>
      <point x="86" y="1001"/>
      <point x="139" y="927"/>
      <point x="235" y="876" type="curve"/>
      <point x="311" y="960" type="line"/>
      <point x="270" y="995"/>
      <point x="248" y="1024"/>
      <point x="248" y="1062" type="curve" smooth="yes"/>
      <point x="248" y="1107"/>
      <point x="280" y="1140"/>
      <point x="344" y="1140" type="curve" smooth="yes"/>
      <point x="418" y="1140"/>
      <point x="465" y="1091"/>
      <point x="465" y="1009" type="curve" smooth="yes"/>
      <point x="465" y="849"/>
      <point x="282" y="756"/>
      <point x="125" y="697" type="curve"/>
      <point x="176" y="386"/>
      <point x="357" y="246"/>
      <point x="585" y="246" type="curve" smooth="yes"/>
      <point x="717" y="246"/>
      <point x="856" y="306"/>
      <point x="968" y="412" type="curve"/>
      <point x="938" y="596" type="line"/>
      <point x="832" y="472"/>
      <point x="707" y="415"/>
      <point x="588" y="415" type="curve" smooth="yes"/>
      <point x="455" y="415"/>
      <point x="351" y="471"/>
      <point x="291" y="649" type="curve"/>
    </contour>
  </outline>
</glyph>
<glyph name="tha_ra-deva" format="1">
  <advance width="1246"/>
  <outline>
    <contour>
      <point x="247" y="92" type="line"/>
      <point x="361" y="-45" type="line"/>
      <point x="915" y="390" type="line"/>
      <point x="829" y="482" type="line"/>
    </contour>
    <component base="tha-deva"/>
    <contour>
      <point x="967" y="1167" type="move" name="top"/>
    </contour>
    <contour>
      <point x="968" y="27" type="move" name="bottom"/>
    </contour>
    <contour>
      <point x="716" y="1167" type="move" name="topcandra"/>
    </contour>
  </outline>
</glyph>
<glyph name="three.numr" format="1">
  <advance width="755"/>
  <outline>
    <contour>
      <point x="69" y="677" type="line" name="hr01"/>
      <point x="132" y="585"/>
      <point x="240" y="519"/>
      <point x="371" y="519" type="curve" smooth="yes"/>
      <point x="528" y="519"/>
      <point x="660" y="612"/>
      <point x="660" y="760" type="curve" smooth="yes"/>
      <point x="660" y="863"/>
      <point x="581" y="931"/>
      <point x="493" y="957" type="curve"/>
      <point x="573" y="995"/>
      <point x="629" y="1058"/>
      <point x="629" y="1150" type="curve" smooth="yes" name="hr02"/>
      <point x="629" y="1285"/>
      <point x="509" y="1367"/>
      <point x="370" y="1367" type="curve" smooth="yes"/>
      <point x="256" y="1367"/>
      <point x="174" y="1317"/>
      <point x="101" y="1234" type="curve"/>
      <point x="189" y="1157" type="line"/>
      <point x="233" y="1213"/>
      <point x="288" y="1251"/>
      <point x="346" y="1251" type="curve" smooth="yes"/>
      <point x="429" y="1251"/>
      <point x="483" y="1204"/>
      <point x="483" y="1131" type="curve" smooth="yes"/>
      <point x="483" y="1052"/>
      <point x="406" y="996"/>
      <point x="276" y="996" type="curve"/>
      <point x="276" y="904" type="line"/>
      <point x="427" y="904"/>
      <point x="513" y="857"/>
      <point x="513" y="769" type="curve" smooth="yes" name="hr03"/>
      <point x="513" y="685"/>
      <point x="444" y="635"/>
      <point x="361" y="635" type="curve" smooth="yes"/>
      <point x="281" y="635"/>
      <point x="214" y="678"/>
      <point x="165" y="749" type="curve"/>
    </contour>
  </outline>
</glyph>
<glyph name="three.pnum" format="1">
  <advance width="1030"/>
  <outline>
    <contour>
      <point x="52" y="160" type="line" name="hr01"/>
      <point x="141" y="60"/>
      <point x="276" y="-25"/>
      <point x="486" y="-25" type="curve" smooth="yes"/>
      <point x="738" y="-25"/>
      <point x="925" y="124"/>
      <point x="925" y="357" type="curve" smooth="yes"/>
      <point x="925" y="535"/>
      <point x="803" y="657"/>
      <point x="648" y="679" type="curve"/>
      <point x="648" y="687" type="line"/>
      <point x="788" y="741"/>
      <point x="881" y="874"/>
      <point x="881" y="1027" type="curve" smooth="yes" name="hr02"/>
      <point x="881" y="1241"/>
      <point x="713" y="1367"/>
      <point x="477" y="1367" type="curve" smooth="yes"/>
      <point x="323" y="1367"/>
      <point x="200" y="1310"/>
      <point x="96" y="1214" type="curve"/>
      <point x="198" y="1093" type="line"/>
      <point x="276" y="1170"/>
      <point x="364" y="1212"/>
      <point x="470" y="1212" type="curve" smooth="yes"/>
      <point x="602" y="1212"/>
      <point x="685" y="1133"/>
      <point x="685" y="1013" type="curve" smooth="yes"/>
      <point x="685" y="882"/>
      <point x="596" y="748"/>
      <point x="327" y="748" type="curve"/>
      <point x="327" y="604" type="line"/>
      <point x="632" y="604"/>
      <point x="731" y="514"/>
      <point x="731" y="366" type="curve" smooth="yes" name="hr03"/>
      <point x="731" y="229"/>
      <point x="633" y="134"/>
      <point x="472" y="134" type="curve" smooth="yes"/>
      <point x="326" y="134"/>
      <point x="225" y="204"/>
      <point x="147" y="285" type="curve"/>
    </contour>
  </outline>
</glyph>
<glyph name="uni03020303" format="1">
  <advance width="786"/>
  <outline>
    <contour>
      <point x="119" y="1459" type="curve" name="hr01"/>
      <point x="214" y="1459" type="line"/>
      <point x="224" y="1519"/>
      <point x="252" y="1545"/>
      <point x="292" y="1545" type="curve" smooth="yes"/>
      <point x="357" y="1545"/>
      <point x="397" y="1459"/>
      <point x="500" y="1459" type="curve" smooth="yes"/>
      <point x="594" y="1459"/>
      <point x="655" y="1537"/>
      <point x="667" y="1654" type="curve" name="hr02"/>
      <point x="572" y="1654" type="line"/>
      <point x="562" y="1596"/>
      <point x="534" y="1568"/>
      <point x="494" y="1568" type="curve" smooth="yes"/>
      <point x="429" y="1568"/>
      <point x="389" y="1654"/>
      <point x="286" y="1654" type="curve" smooth="yes"/>
      <point x="192" y="1654"/>
      <point x="131" y="1578"/>
    </contour>
    <contour>
      <point x="263" y="1170" type="line"/>
      <point x="389" y="1301" type="line"/>
      <point x="397" y="1301" type="line"/>
      <point x="523" y="1170" type="line"/>
      <point x="656" y="1170" type="line"/>
      <point x="482" y="1385" type="line"/>
      <point x="304" y="1385" type="line"/>
      <point x="130" y="1170" type="line"/>
    </contour>
  </outline>
</glyph>
<glyph name="uni0307.cap" format="1">
  <advance width="600"/>
  <outline>
    <contour>
      <point x="0" y="1457" type="curve" smooth="yes"/>
      <point x="72" y="1457"/>
      <point x="127" y="1506"/>
      <point x="127" y="1577" type="curve" smooth="yes"/>
      <point x="127" y="1645"/>
      <point x="72" y="1694"/>
      <point x="0" y="1694" type="curve" smooth="yes"/>
      <point x="-72" y="1694"/>
      <point x="-127" y="1645"/>
      <point x="-127" y="1577" type="curve" smooth="yes"/>
      <point x="-127" y="1506"/>
      <point x="-72" y="1457"/>
    </contour>
    <contour>
      <point x="0" y="1387" type="move" name="_mark0"/>
    </contour>
  </outline>
</glyph>
<glyph name="uni03080300.cap" format="1">
  <advance width="630"/>
  <outline>
    <contour>
      <point x="247" y="1955" type="line" name="hr00"/>
      <point x="37" y="1955" type="line"/>
      <point x="269" y="1724" type="line"/>
      <point x="426" y="1724" type="line"/>
    </contour>
    <contour>
      <point x="494" y="1459" type="curve" smooth="yes"/>
      <point x="551" y="1459"/>
      <point x="594" y="1500"/>
      <point x="594" y="1559" type="curve" smooth="yes"/>
      <point x="594" y="1615"/>
      <point x="551" y="1657"/>
      <point x="494" y="1657" type="curve" smooth="yes"/>
      <point x="437" y="1657"/>
      <point x="396" y="1615"/>
      <point x="396" y="1559" type="curve" smooth="yes"/>
      <point x="396" y="1500"/>
      <point x="437" y="1459"/>
    </contour>
    <contour>
      <point x="132" y="1459" type="curve" smooth="yes"/>
      <point x="189" y="1459"/>
      <point x="230" y="1500"/>
      <point x="230" y="1559" type="curve" smooth="yes"/>
      <point x="230" y="1615"/>
      <point x="189" y="1657"/>
      <point x="132" y="1657" type="curve" smooth="yes"/>
      <point x="75" y="1657"/>
      <point x="32" y="1615"/>
      <point x="32" y="1559" type="curve" smooth="yes"/>
      <point x="32" y="1500"/>
      <point x="75" y="1459"/>
    </contour>
  </outline>
</glyph>
<glyph name="uni03080300" format="1">
  <advance width="650"/>
  <outline>
    <contour>
      <point x="271" y="1695" type="line" name="hr00"/>
      <point x="92" y="1695" type="line"/>
      <point x="307" y="1481" type="line"/>
      <point x="439" y="1481" type="line"/>
    </contour>
    <contour>
      <point x="506" y="1198" type="curve" smooth="yes"/>
      <point x="563" y="1198"/>
      <point x="606" y="1241"/>
      <point x="606" y="1296" type="curve" smooth="yes"/>
      <point x="606" y="1353"/>
      <point x="563" y="1396"/>
      <point x="506" y="1396" type="curve" smooth="yes"/>
      <point x="449" y="1396"/>
      <point x="408" y="1353"/>
      <point x="408" y="1296" type="curve" smooth="yes"/>
      <point x="408" y="1241"/>
      <point x="449" y="1198"/>
    </contour>
    <contour>
      <point x="144" y="1198" type="curve" smooth="yes"/>
      <point x="201" y="1198"/>
      <point x="242" y="1241"/>
      <point x="242" y="1296" type="curve" smooth="yes"/>
      <point x="242" y="1353"/>
      <point x="201" y="1396"/>
      <point x="144" y="1396" type="curve" smooth="yes"/>
      <point x="87" y="1396"/>
      <point x="44" y="1353"/>
      <point x="44" y="1296" type="curve" smooth="yes"/>
      <point x="44" y="1241"/>
      <point x="87" y="1198"/>
    </contour>
  </outline>
</glyph>
<glyph name="uni0308030C.cap" format="1">
  <advance width="658"/>
  <outline>
    <contour>
      <point x="144" y="1459" type="curve" smooth="yes" name="hr00"/>
      <point x="201" y="1459"/>
      <point x="242" y="1500"/>
      <point x="242" y="1559" type="curve" smooth="yes"/>
      <point x="242" y="1615"/>
      <point x="201" y="1657"/>
      <point x="144" y="1657" type="curve" smooth="yes"/>
      <point x="87" y="1657"/>
      <point x="44" y="1615"/>
      <point x="44" y="1559" type="curve" smooth="yes"/>
      <point x="44" y="1500"/>
      <point x="87" y="1459"/>
    </contour>
    <contour>
      <point x="506" y="1459" type="curve" smooth="yes"/>
      <point x="563" y="1459"/>
      <point x="606" y="1500"/>
      <point x="606" y="1559" type="curve" smooth="yes"/>
      <point x="606" y="1615"/>
      <point x="563" y="1657"/>
      <point x="506" y="1657" type="curve" smooth="yes"/>
      <point x="449" y="1657"/>
      <point x="408" y="1615"/>
      <point x="408" y="1559" type="curve" smooth="yes"/>
      <point x="408" y="1500"/>
      <point x="449" y="1459"/>
    </contour>
    <contour>
      <point x="461" y="1955" type="line"/>
      <point x="329" y="1818" type="line"/>
      <point x="321" y="1818" type="line"/>
      <point x="189" y="1955" type="line"/>
      <point x="34" y="1955" type="line"/>
      <point x="231" y="1724" type="line"/>
      <point x="419" y="1724" type="line"/>
      <point x="616" y="1955" type="line"/>
    </contour>
  </outline>
</glyph>
<glyph name="uni1E37.a" format="1">
  <advance width="515"/>
  <outline>
    <contour>
      <point x="162" y="0" type="line"/>
      <point x="354" y="0" type="line"/>
      <point x="354" y="1454" type="line"/>
      <point x="162" y="1454" type="line"/>
    </contour>
    <contour>
      <point x="258" y="-430" type="curve" smooth="yes"/>
      <point x="328" y="-430"/>
      <point x="378" y="-381"/>
      <point x="378" y="-310" type="curve" smooth="yes"/>
      <point x="378" y="-242"/>
      <point x="328" y="-193"/>
      <point x="258" y="-193" type="curve" smooth="yes"/>
      <point x="187" y="-193"/>
      <point x="136" y="-242"/>
      <point x="136" y="-310" type="curve" smooth="yes"/>
      <point x="136" y="-381"/>
      <point x="187" y="-430"/>
    </contour>
  </outline>
</glyph>
<glyph name="uni1EA1.a" format="1">
  <advance width="1144"/>
  <outline>
    <contour>
      <point x="292" y="501" type="curve" smooth="yes"/>
      <point x="292" y="721"/>
      <point x="411" y="864"/>
      <point x="560" y="864" type="curve" smooth="yes"/>
      <point x="637" y="864"/>
      <point x="710" y="837"/>
      <point x="788" y="766" type="curve"/>
      <point x="788" y="265" type="line"/>
      <point x="712" y="177"/>
      <point x="637" y="136"/>
      <point x="550" y="136" type="curve" smooth="yes"/>
      <point x="387" y="136"/>
      <point x="292" y="269"/>
    </contour>
    <contour>
      <point x="93" y="498" type="curve" smooth="yes"/>
      <point x="93" y="166"/>
      <point x="255" y="-25"/>
      <point x="506" y="-25" type="curve" smooth="yes"/>
      <point x="619" y="-25"/>
      <point x="724" y="39"/>
      <point x="801" y="114" type="curve"/>
      <point x="807" y="114" type="line"/>
      <point x="823" y="0" type="line"/>
      <point x="982" y="0" type="line"/>
      <point x="982" y="999" type="line"/>
      <point x="826" y="999" type="line"/>
      <point x="810" y="902" type="line"/>
      <point x="805" y="902" type="line"/>
      <point x="717" y="983"/>
      <point x="635" y="1024"/>
      <point x="526" y="1024" type="curve" smooth="yes"/>
      <point x="302" y="1024"/>
      <point x="93" y="823"/>
    </contour>
    <contour>
      <point x="588" y="-430" type="curve" smooth="yes"/>
      <point x="658" y="-430"/>
      <point x="709" y="-381"/>
      <point x="709" y="-310" type="curve" smooth="yes"/>
      <point x="709" y="-242"/>
      <point x="658" y="-193"/>
      <point x="588" y="-193" type="curve" smooth="yes"/>
      <point x="518" y="-193"/>
      <point x="467" y="-242"/>
      <point x="467" y="-310" type="curve" smooth="yes"/>
      <point x="467" y="-381"/>
      <point x="518" y="-430"/>
    </contour>
  </outline>
</glyph>
<glyph name="zero.dnom" format="1">
  <advance width="755"/>
  <outline>
    <contour>
      <point x="378" y="-25" type="curve" smooth="yes" name="hr00"/>
      <point x="562" y="-25"/>
      <point x="689" y="130"/>
      <point x="689" y="401" type="curve" smooth="yes"/>
      <point x="689" y="670"/>
      <point x="562" y="823"/>
      <point x="378" y="823" type="curve" smooth="yes"/>
      <point x="193" y="823"/>
      <point x="69" y="670"/>
      <point x="69" y="401" type="curve" smooth="yes"/>
      <point x="69" y="130"/>
      <point x="193" y="-25"/>
    </contour>
    <contour>
      <point x="378" y="92" type="curve" smooth="yes"/>
      <point x="279" y="92"/>
      <point x="211" y="192"/>
      <point x="211" y="401" type="curve" smooth="yes"/>
      <point x="211" y="610"/>
      <point x="279" y="707"/>
      <point x="378" y="707" type="curve" smooth="yes"/>
      <point x="476" y="707"/>
      <point x="545" y="610"/>
      <point x="545" y="401" type="curve" smooth="yes"/>
      <point x="545" y="192"/>
      <point x="476" y="92"/>
    </contour>
  </outline>
</glyph>
<glyph name="zero.numr" format="1">
  <advance width="755"/>
  <outline>
    <contour>
      <point x="378" y="519" type="curve" smooth="yes" name="hr00"/>
      <point x="562" y="519"/>
      <point x="689" y="675"/>
      <point x="689" y="945" type="curve" smooth="yes"/>
      <point x="689" y="1215"/>
      <point x="562" y="1367"/>
      <point x="378" y="1367" type="curve" smooth="yes"/>
      <point x="193" y="1367"/>
      <point x="69" y="1215"/>
      <point x="69" y="945" type="curve" smooth="yes"/>
      <point x="69" y="675"/>
      <point x="193" y="519"/>
    </contour>
    <contour>
      <point x="378" y="635" type="curve" smooth="yes"/>
      <point x="279" y="635"/>
      <point x="211" y="736"/>
      <point x="211" y="945" type="curve" smooth="yes"/>
      <point x="211" y="1155"/>
      <point x="279" y="1251"/>
      <point x="378" y="1251" type="curve" smooth="yes"/>
      <point x="476" y="1251"/>
      <point x="545" y="1155"/>
      <point x="545" y="945" type="curve" smooth="yes"/>
      <point x="545" y="736"/>
      <point x="476" y="635"/>
    </contour>
  </outline>
</glyph>
